<?xml version="1.0" encoding="UTF-8" standalone="no"?>
<!DOCTYPE svg PUBLIC "-//W3C//DTD SVG 1.1//EN"
 "http://www.w3.org/Graphics/SVG/1.1/DTD/svg11.dtd">
<!-- Generated by graphviz version 2.43.0 (0)
 -->
<!-- Title: %3 Pages: 1 -->
<svg width="1385pt" height="404pt"
 viewBox="0.00 0.00 1385.47 404.00" xmlns="http://www.w3.org/2000/svg" xmlns:xlink="http://www.w3.org/1999/xlink">
<g id="graph0" class="graph" transform="scale(1 1) rotate(0) translate(4 400)">
<title>%3</title>
<polygon fill="white" stroke="transparent" points="-4,4 -4,-400 1381.47,-400 1381.47,4 -4,4"/>
<!-- 0 -->
<g id="node1" class="node">
<title>0</title>
<ellipse fill="none" stroke="black" cx="120.24" cy="-306" rx="120.48" ry="18"/>
<text text-anchor="middle" x="120.24" y="-302.3" font-family="Times,serif" font-size="14.00">input cols=[timestamp]</text>
</g>
<!-- 13 -->
<g id="node3" class="node">
<title>13</title>
<ellipse fill="none" stroke="black" cx="229.24" cy="-234" rx="61.19" ry="18"/>
<text text-anchor="middle" x="229.24" y="-230.3" font-family="Times,serif" font-size="14.00">LambdaOp</text>
</g>
<!-- 0&#45;&gt;13 -->
<g id="edge14" class="edge">
<title>0&#45;&gt;13</title>
<path fill="none" stroke="black" d="M146.07,-288.41C161.05,-278.79 180.07,-266.58 196.14,-256.26"/>
<polygon fill="black" stroke="black" points="198.19,-259.1 204.72,-250.75 194.41,-253.21 198.19,-259.1"/>
</g>
<!-- 1 -->
<g id="node2" class="node">
<title>1</title>
<ellipse fill="none" stroke="black" cx="322.24" cy="-162" rx="48.19" ry="18"/>
<text text-anchor="middle" x="322.24" y="-158.3" font-family="Times,serif" font-size="14.00">Rename</text>
</g>
<!-- 2 -->
<g id="node4" class="node">
<title>2</title>
<ellipse fill="none" stroke="black" cx="591.24" cy="-90" rx="27" ry="18"/>
<text text-anchor="middle" x="591.24" y="-86.3" font-family="Times,serif" font-size="14.00">+</text>
</g>
<!-- 1&#45;&gt;2 -->
<g id="edge5" class="edge">
<title>1&#45;&gt;2</title>
<path fill="none" stroke="black" d="M360.49,-151.05C412.88,-137.41 506.15,-113.14 556.58,-100.02"/>
<polygon fill="black" stroke="black" points="557.57,-103.38 566.37,-97.47 555.81,-96.6 557.57,-103.38"/>
</g>
<!-- 13&#45;&gt;1 -->
<g id="edge1" class="edge">
<title>13&#45;&gt;1</title>
<path fill="none" stroke="black" d="M250.81,-216.76C263.52,-207.2 279.75,-194.98 293.53,-184.61"/>
<polygon fill="black" stroke="black" points="295.86,-187.24 301.74,-178.43 291.65,-181.64 295.86,-187.24"/>
</g>
<!-- 16 -->
<g id="node17" class="node">
<title>16</title>
<ellipse fill="none" stroke="black" cx="591.24" cy="-18" rx="315.74" ry="18"/>
<text text-anchor="middle" x="591.24" y="-14.3" font-family="Times,serif" font-size="14.00">output cols=[hashtags_count_t, domains_count_t, links_count_t...]</text>
</g>
<!-- 2&#45;&gt;16 -->
<g id="edge16" class="edge">
<title>2&#45;&gt;16</title>
<path fill="none" stroke="black" d="M591.24,-71.7C591.24,-63.98 591.24,-54.71 591.24,-46.11"/>
<polygon fill="black" stroke="black" points="594.74,-46.1 591.24,-36.1 587.74,-46.1 594.74,-46.1"/>
</g>
<!-- 8 -->
<g id="node5" class="node">
<title>8</title>
<ellipse fill="none" stroke="black" cx="494.24" cy="-162" rx="48.19" ry="18"/>
<text text-anchor="middle" x="494.24" y="-158.3" font-family="Times,serif" font-size="14.00">Rename</text>
</g>
<!-- 8&#45;&gt;2 -->
<g id="edge2" class="edge">
<title>8&#45;&gt;2</title>
<path fill="none" stroke="black" d="M515.29,-145.81C529.96,-135.23 549.62,-121.04 565.26,-109.75"/>
<polygon fill="black" stroke="black" points="567.42,-112.5 573.48,-103.81 563.33,-106.83 567.42,-112.5"/>
</g>
<!-- 14 -->
<g id="node6" class="node">
<title>14</title>
<ellipse fill="none" stroke="black" cx="689.24" cy="-162" rx="59.59" ry="18"/>
<text text-anchor="middle" x="689.24" y="-158.3" font-family="Times,serif" font-size="14.00">Categorify</text>
</g>
<!-- 14&#45;&gt;2 -->
<g id="edge3" class="edge">
<title>14&#45;&gt;2</title>
<path fill="none" stroke="black" d="M667,-145.12C652.23,-134.57 632.78,-120.67 617.28,-109.6"/>
<polygon fill="black" stroke="black" points="619.31,-106.75 609.14,-103.78 615.24,-112.44 619.31,-106.75"/>
</g>
<!-- 6 -->
<g id="node7" class="node">
<title>6</title>
<ellipse fill="none" stroke="black" cx="932.24" cy="-162" rx="62.29" ry="18"/>
<text text-anchor="middle" x="932.24" y="-158.3" font-family="Times,serif" font-size="14.00">FillMissing</text>
</g>
<!-- 6&#45;&gt;2 -->
<g id="edge4" class="edge">
<title>6&#45;&gt;2</title>
<path fill="none" stroke="black" d="M883.02,-150.9C813.45,-136.62 688.03,-110.87 626.81,-98.3"/>
<polygon fill="black" stroke="black" points="627.35,-94.84 616.85,-96.26 625.94,-101.7 627.35,-94.84"/>
</g>
<!-- 3 -->
<g id="node8" class="node">
<title>3</title>
<ellipse fill="none" stroke="black" cx="707.24" cy="-306" rx="61.19" ry="18"/>
<text text-anchor="middle" x="707.24" y="-302.3" font-family="Times,serif" font-size="14.00">LambdaOp</text>
</g>
<!-- 12 -->
<g id="node15" class="node">
<title>12</title>
<ellipse fill="none" stroke="black" cx="707.24" cy="-234" rx="27" ry="18"/>
<text text-anchor="middle" x="707.24" y="-230.3" font-family="Times,serif" font-size="14.00">+</text>
</g>
<!-- 3&#45;&gt;12 -->
<g id="edge11" class="edge">
<title>3&#45;&gt;12</title>
<path fill="none" stroke="black" d="M707.24,-287.7C707.24,-279.98 707.24,-270.71 707.24,-262.11"/>
<polygon fill="black" stroke="black" points="710.74,-262.1 707.24,-252.1 703.74,-262.1 710.74,-262.1"/>
</g>
<!-- 10 -->
<g id="node9" class="node">
<title>10</title>
<ellipse fill="none" stroke="black" cx="626.24" cy="-378" rx="98.58" ry="18"/>
<text text-anchor="middle" x="626.24" y="-374.3" font-family="Times,serif" font-size="14.00">input cols=[media]</text>
</g>
<!-- 10&#45;&gt;3 -->
<g id="edge6" class="edge">
<title>10&#45;&gt;3</title>
<path fill="none" stroke="black" d="M645.85,-360.05C656.25,-351.07 669.17,-339.9 680.48,-330.12"/>
<polygon fill="black" stroke="black" points="683.09,-332.49 688.37,-323.31 678.52,-327.2 683.09,-332.49"/>
</g>
<!-- 4 -->
<g id="node10" class="node">
<title>4</title>
<ellipse fill="none" stroke="black" cx="460.24" cy="-234" rx="61.19" ry="18"/>
<text text-anchor="middle" x="460.24" y="-230.3" font-family="Times,serif" font-size="14.00">LambdaOp</text>
</g>
<!-- 4&#45;&gt;8 -->
<g id="edge10" class="edge">
<title>4&#45;&gt;8</title>
<path fill="none" stroke="black" d="M468.47,-216.05C472.44,-207.89 477.28,-197.91 481.7,-188.82"/>
<polygon fill="black" stroke="black" points="484.86,-190.31 486.08,-179.79 478.57,-187.25 484.86,-190.31"/>
</g>
<!-- 5 -->
<g id="node11" class="node">
<title>5</title>
<ellipse fill="none" stroke="black" cx="443.24" cy="-306" rx="185.47" ry="18"/>
<text text-anchor="middle" x="443.24" y="-302.3" font-family="Times,serif" font-size="14.00">input cols=[hashtags, domains, links]</text>
</g>
<!-- 5&#45;&gt;4 -->
<g id="edge7" class="edge">
<title>5&#45;&gt;4</title>
<path fill="none" stroke="black" d="M447.44,-287.7C449.34,-279.9 451.62,-270.51 453.72,-261.83"/>
<polygon fill="black" stroke="black" points="457.13,-262.65 456.09,-252.1 450.32,-261 457.13,-262.65"/>
</g>
<!-- 9 -->
<g id="node12" class="node">
<title>9</title>
<ellipse fill="none" stroke="black" cx="985.24" cy="-234" rx="233.16" ry="18"/>
<text text-anchor="middle" x="985.24" y="-230.3" font-family="Times,serif" font-size="14.00">input cols=[reply, retweet, retweet_comment...]</text>
</g>
<!-- 9&#45;&gt;6 -->
<g id="edge8" class="edge">
<title>9&#45;&gt;6</title>
<path fill="none" stroke="black" d="M972.14,-215.7C965.85,-207.39 958.19,-197.28 951.27,-188.14"/>
<polygon fill="black" stroke="black" points="954.02,-185.96 945.19,-180.1 948.44,-190.19 954.02,-185.96"/>
</g>
<!-- 7 -->
<g id="node13" class="node">
<title>7</title>
<ellipse fill="none" stroke="black" cx="848.24" cy="-306" rx="62.29" ry="18"/>
<text text-anchor="middle" x="848.24" y="-302.3" font-family="Times,serif" font-size="14.00">FillMissing</text>
</g>
<!-- 7&#45;&gt;12 -->
<g id="edge12" class="edge">
<title>7&#45;&gt;12</title>
<path fill="none" stroke="black" d="M818.34,-290.15C794.5,-278.32 761.27,-261.83 737.38,-249.96"/>
<polygon fill="black" stroke="black" points="738.91,-246.82 728.4,-245.5 735.8,-253.09 738.91,-246.82"/>
</g>
<!-- 11 -->
<g id="node14" class="node">
<title>11</title>
<ellipse fill="none" stroke="black" cx="928.24" cy="-378" rx="185.47" ry="18"/>
<text text-anchor="middle" x="928.24" y="-374.3" font-family="Times,serif" font-size="14.00">input cols=[hashtags, domains, links]</text>
</g>
<!-- 11&#45;&gt;7 -->
<g id="edge9" class="edge">
<title>11&#45;&gt;7</title>
<path fill="none" stroke="black" d="M908.87,-360.05C898.6,-351.07 885.83,-339.9 874.67,-330.12"/>
<polygon fill="black" stroke="black" points="876.71,-327.26 866.88,-323.31 872.1,-332.53 876.71,-327.26"/>
</g>
<!-- 12&#45;&gt;14 -->
<g id="edge15" class="edge">
<title>12&#45;&gt;14</title>
<path fill="none" stroke="black" d="M702.88,-216.05C700.88,-208.26 698.45,-198.82 696.2,-190.08"/>
<polygon fill="black" stroke="black" points="699.56,-189.09 693.68,-180.28 692.78,-190.83 699.56,-189.09"/>
</g>
<!-- 15 -->
<g id="node16" class="node">
<title>15</title>
<ellipse fill="none" stroke="black" cx="1153.24" cy="-306" rx="224.46" ry="18"/>
<text text-anchor="middle" x="1153.24" y="-302.3" font-family="Times,serif" font-size="14.00">input cols=[language, tweet_type, tweet_id...]</text>
</g>
<!-- 15&#45;&gt;12 -->
<g id="edge13" class="edge">
<title>15&#45;&gt;12</title>
<path fill="none" stroke="black" d="M979.47,-294.62C905.56,-287.12 819.09,-274.21 743.24,-252 741.3,-251.43 739.33,-250.77 737.37,-250.05"/>
<polygon fill="black" stroke="black" points="738.32,-246.65 727.75,-246.03 735.63,-253.11 738.32,-246.65"/>
</g>
</g>
</svg>
