<?xml version="1.0" encoding="UTF-8" standalone="no"?>
<!DOCTYPE svg PUBLIC "-//W3C//DTD SVG 1.1//EN"
 "http://www.w3.org/Graphics/SVG/1.1/DTD/svg11.dtd">
<!-- Generated by graphviz version 2.43.0 (0)
 -->
<!-- Title: %3 Pages: 1 -->
<svg width="1910pt" height="404pt"
 viewBox="0.00 0.00 1910.16 404.00" xmlns="http://www.w3.org/2000/svg" xmlns:xlink="http://www.w3.org/1999/xlink">
<g id="graph0" class="graph" transform="scale(1 1) rotate(0) translate(4 400)">
<title>%3</title>
<polygon fill="white" stroke="transparent" points="-4,4 -4,-400 1906.16,-400 1906.16,4 -4,4"/>
<!-- 0 -->
<g id="node1" class="node">
<title>0</title>
<ellipse fill="none" stroke="black" cx="685.18" cy="-162" rx="48.19" ry="18"/>
<text text-anchor="middle" x="685.18" y="-158.3" font-family="Times,serif" font-size="14.00">Rename</text>
</g>
<!-- 12 -->
<g id="node15" class="node">
<title>12</title>
<ellipse fill="none" stroke="black" cx="799.18" cy="-90" rx="27" ry="18"/>
<text text-anchor="middle" x="799.18" y="-86.3" font-family="Times,serif" font-size="14.00">+</text>
</g>
<!-- 0&#45;&gt;12 -->
<g id="edge13" class="edge">
<title>0&#45;&gt;12</title>
<path fill="none" stroke="black" d="M709.08,-146.33C727.23,-135.18 752.23,-119.83 771.29,-108.12"/>
<polygon fill="black" stroke="black" points="773.16,-111.08 779.85,-102.87 769.5,-105.12 773.16,-111.08"/>
</g>
<!-- 21 -->
<g id="node2" class="node">
<title>21</title>
<ellipse fill="none" stroke="black" cx="654.18" cy="-234" rx="61.19" ry="18"/>
<text text-anchor="middle" x="654.18" y="-230.3" font-family="Times,serif" font-size="14.00">LambdaOp</text>
</g>
<!-- 21&#45;&gt;0 -->
<g id="edge1" class="edge">
<title>21&#45;&gt;0</title>
<path fill="none" stroke="black" d="M661.69,-216.05C665.26,-207.97 669.63,-198.12 673.62,-189.11"/>
<polygon fill="black" stroke="black" points="676.9,-190.35 677.75,-179.79 670.5,-187.52 676.9,-190.35"/>
</g>
<!-- 1 -->
<g id="node3" class="node">
<title>1</title>
<ellipse fill="none" stroke="black" cx="497.18" cy="-162" rx="84.49" ry="18"/>
<text text-anchor="middle" x="497.18" y="-158.3" font-family="Times,serif" font-size="14.00">TargetEncoding</text>
</g>
<!-- 1&#45;&gt;12 -->
<g id="edge17" class="edge">
<title>1&#45;&gt;12</title>
<path fill="none" stroke="black" d="M552.22,-148.24C613.95,-133.94 712.2,-111.16 764.22,-99.1"/>
<polygon fill="black" stroke="black" points="765.03,-102.51 773.98,-96.84 763.45,-95.69 765.03,-102.51"/>
</g>
<!-- 5 -->
<g id="node4" class="node">
<title>5</title>
<ellipse fill="none" stroke="black" cx="213.18" cy="-234" rx="213.36" ry="18"/>
<text text-anchor="middle" x="213.18" y="-230.3" font-family="Times,serif" font-size="14.00">input cols=[media, tweet_type, language...]</text>
</g>
<!-- 5&#45;&gt;1 -->
<g id="edge2" class="edge">
<title>5&#45;&gt;1</title>
<path fill="none" stroke="black" d="M278.69,-216.85C325.39,-205.34 387.83,-189.95 433.99,-178.57"/>
<polygon fill="black" stroke="black" points="435.01,-181.93 443.88,-176.14 433.33,-175.13 435.01,-181.93"/>
</g>
<!-- 11 -->
<g id="node5" class="node">
<title>11</title>
<ellipse fill="none" stroke="black" cx="505.18" cy="-234" rx="61.19" ry="18"/>
<text text-anchor="middle" x="505.18" y="-230.3" font-family="Times,serif" font-size="14.00">LambdaOp</text>
</g>
<!-- 11&#45;&gt;1 -->
<g id="edge3" class="edge">
<title>11&#45;&gt;1</title>
<path fill="none" stroke="black" d="M503.2,-215.7C502.32,-207.98 501.26,-198.71 500.28,-190.11"/>
<polygon fill="black" stroke="black" points="503.75,-189.64 499.14,-180.1 496.79,-190.44 503.75,-189.64"/>
</g>
<!-- 11&#45;&gt;12 -->
<g id="edge16" class="edge">
<title>11&#45;&gt;12</title>
<path fill="none" stroke="black" d="M532.52,-217.85C549.65,-207.9 571.88,-194.14 590.18,-180 608.59,-165.77 608.1,-155.75 628.18,-144 671.03,-118.93 726.98,-104.51 763,-97.21"/>
<polygon fill="black" stroke="black" points="763.91,-100.6 773.05,-95.25 762.57,-93.73 763.91,-100.6"/>
</g>
<!-- 2 -->
<g id="node6" class="node">
<title>2</title>
<ellipse fill="none" stroke="black" cx="799.18" cy="-162" rx="48.19" ry="18"/>
<text text-anchor="middle" x="799.18" y="-158.3" font-family="Times,serif" font-size="14.00">Rename</text>
</g>
<!-- 2&#45;&gt;12 -->
<g id="edge14" class="edge">
<title>2&#45;&gt;12</title>
<path fill="none" stroke="black" d="M799.18,-143.7C799.18,-135.98 799.18,-126.71 799.18,-118.11"/>
<polygon fill="black" stroke="black" points="802.68,-118.1 799.18,-108.1 795.68,-118.1 802.68,-118.1"/>
</g>
<!-- 3 -->
<g id="node7" class="node">
<title>3</title>
<ellipse fill="none" stroke="black" cx="794.18" cy="-234" rx="61.19" ry="18"/>
<text text-anchor="middle" x="794.18" y="-230.3" font-family="Times,serif" font-size="14.00">LambdaOp</text>
</g>
<!-- 3&#45;&gt;2 -->
<g id="edge4" class="edge">
<title>3&#45;&gt;2</title>
<path fill="none" stroke="black" d="M795.42,-215.7C795.97,-207.98 796.63,-198.71 797.24,-190.11"/>
<polygon fill="black" stroke="black" points="800.74,-190.33 797.96,-180.1 793.76,-189.83 800.74,-190.33"/>
</g>
<!-- 9 -->
<g id="node8" class="node">
<title>9</title>
<ellipse fill="none" stroke="black" cx="785.18" cy="-306" rx="61.19" ry="18"/>
<text text-anchor="middle" x="785.18" y="-302.3" font-family="Times,serif" font-size="14.00">LambdaOp</text>
</g>
<!-- 9&#45;&gt;21 -->
<g id="edge24" class="edge">
<title>9&#45;&gt;21</title>
<path fill="none" stroke="black" d="M757.08,-289.98C737.82,-279.7 712.09,-265.94 691.17,-254.77"/>
<polygon fill="black" stroke="black" points="692.71,-251.62 682.24,-249.99 689.41,-257.79 692.71,-251.62"/>
</g>
<!-- 9&#45;&gt;3 -->
<g id="edge5" class="edge">
<title>9&#45;&gt;3</title>
<path fill="none" stroke="black" d="M787.41,-287.7C788.4,-279.98 789.59,-270.71 790.7,-262.11"/>
<polygon fill="black" stroke="black" points="794.18,-262.47 791.98,-252.1 787.24,-261.58 794.18,-262.47"/>
</g>
<!-- 6 -->
<g id="node12" class="node">
<title>6</title>
<ellipse fill="none" stroke="black" cx="934.18" cy="-234" rx="61.19" ry="18"/>
<text text-anchor="middle" x="934.18" y="-230.3" font-family="Times,serif" font-size="14.00">LambdaOp</text>
</g>
<!-- 9&#45;&gt;6 -->
<g id="edge8" class="edge">
<title>9&#45;&gt;6</title>
<path fill="none" stroke="black" d="M816.42,-290.33C838.94,-279.74 869.54,-265.37 893.9,-253.92"/>
<polygon fill="black" stroke="black" points="895.68,-256.95 903.24,-249.53 892.7,-250.62 895.68,-256.95"/>
</g>
<!-- 4 -->
<g id="node9" class="node">
<title>4</title>
<ellipse fill="none" stroke="black" cx="1064.18" cy="-162" rx="68.49" ry="18"/>
<text text-anchor="middle" x="1064.18" y="-158.3" font-family="Times,serif" font-size="14.00">JoinGroupby</text>
</g>
<!-- 4&#45;&gt;12 -->
<g id="edge11" class="edge">
<title>4&#45;&gt;12</title>
<path fill="none" stroke="black" d="M1017.72,-148.73C965.17,-134.85 880.81,-112.56 833.75,-100.13"/>
<polygon fill="black" stroke="black" points="834.58,-96.73 824.02,-97.56 832.79,-103.5 834.58,-96.73"/>
</g>
<!-- 20 -->
<g id="node10" class="node">
<title>20</title>
<ellipse fill="none" stroke="black" cx="1064.18" cy="-234" rx="48.19" ry="18"/>
<text text-anchor="middle" x="1064.18" y="-230.3" font-family="Times,serif" font-size="14.00">Rename</text>
</g>
<!-- 20&#45;&gt;4 -->
<g id="edge6" class="edge">
<title>20&#45;&gt;4</title>
<path fill="none" stroke="black" d="M1064.18,-215.7C1064.18,-207.98 1064.18,-198.71 1064.18,-190.11"/>
<polygon fill="black" stroke="black" points="1067.68,-190.1 1064.18,-180.1 1060.68,-190.1 1067.68,-190.1"/>
</g>
<!-- 8 -->
<g id="node11" class="node">
<title>8</title>
<ellipse fill="none" stroke="black" cx="1225.18" cy="-234" rx="94.78" ry="18"/>
<text text-anchor="middle" x="1225.18" y="-230.3" font-family="Times,serif" font-size="14.00">input cols=[reply]</text>
</g>
<!-- 8&#45;&gt;4 -->
<g id="edge7" class="edge">
<title>8&#45;&gt;4</title>
<path fill="none" stroke="black" d="M1189.05,-217.29C1164.88,-206.78 1132.95,-192.9 1107.43,-181.8"/>
<polygon fill="black" stroke="black" points="1108.56,-178.48 1097.99,-177.7 1105.77,-184.9 1108.56,-178.48"/>
</g>
<!-- 18 -->
<g id="node16" class="node">
<title>18</title>
<ellipse fill="none" stroke="black" cx="919.18" cy="-162" rx="48.19" ry="18"/>
<text text-anchor="middle" x="919.18" y="-158.3" font-family="Times,serif" font-size="14.00">Rename</text>
</g>
<!-- 6&#45;&gt;18 -->
<g id="edge21" class="edge">
<title>6&#45;&gt;18</title>
<path fill="none" stroke="black" d="M930.47,-215.7C928.82,-207.98 926.83,-198.71 924.99,-190.11"/>
<polygon fill="black" stroke="black" points="928.36,-189.15 922.85,-180.1 921.52,-190.62 928.36,-189.15"/>
</g>
<!-- 7 -->
<g id="node13" class="node">
<title>7</title>
<ellipse fill="none" stroke="black" cx="785.18" cy="-378" rx="120.48" ry="18"/>
<text text-anchor="middle" x="785.18" y="-374.3" font-family="Times,serif" font-size="14.00">input cols=[timestamp]</text>
</g>
<!-- 7&#45;&gt;9 -->
<g id="edge9" class="edge">
<title>7&#45;&gt;9</title>
<path fill="none" stroke="black" d="M785.18,-359.7C785.18,-351.98 785.18,-342.71 785.18,-334.11"/>
<polygon fill="black" stroke="black" points="788.68,-334.1 785.18,-324.1 781.68,-334.1 788.68,-334.1"/>
</g>
<!-- 10 -->
<g id="node14" class="node">
<title>10</title>
<ellipse fill="none" stroke="black" cx="473.18" cy="-306" rx="233.16" ry="18"/>
<text text-anchor="middle" x="473.18" y="-302.3" font-family="Times,serif" font-size="14.00">input cols=[reply, retweet, retweet_comment...]</text>
</g>
<!-- 10&#45;&gt;11 -->
<g id="edge10" class="edge">
<title>10&#45;&gt;11</title>
<path fill="none" stroke="black" d="M481.09,-287.7C484.73,-279.73 489.14,-270.1 493.17,-261.26"/>
<polygon fill="black" stroke="black" points="496.39,-262.65 497.36,-252.1 490.02,-259.74 496.39,-262.65"/>
</g>
<!-- 22 -->
<g id="node23" class="node">
<title>22</title>
<ellipse fill="none" stroke="black" cx="799.18" cy="-18" rx="337.94" ry="18"/>
<text text-anchor="middle" x="799.18" y="-14.3" font-family="Times,serif" font-size="14.00">output cols=[media_c_count, tweet_type_c_count, language_c_count...]</text>
</g>
<!-- 12&#45;&gt;22 -->
<g id="edge25" class="edge">
<title>12&#45;&gt;22</title>
<path fill="none" stroke="black" d="M799.18,-71.7C799.18,-63.98 799.18,-54.71 799.18,-46.11"/>
<polygon fill="black" stroke="black" points="802.68,-46.1 799.18,-36.1 795.68,-46.1 802.68,-46.1"/>
</g>
<!-- 18&#45;&gt;12 -->
<g id="edge12" class="edge">
<title>18&#45;&gt;12</title>
<path fill="none" stroke="black" d="M894.32,-146.5C874.91,-135.17 847.93,-119.44 827.66,-107.61"/>
<polygon fill="black" stroke="black" points="829.27,-104.5 818.86,-102.48 825.74,-110.54 829.27,-104.5"/>
</g>
<!-- 13 -->
<g id="node17" class="node">
<title>13</title>
<ellipse fill="none" stroke="black" cx="1322.18" cy="-162" rx="62.29" ry="18"/>
<text text-anchor="middle" x="1322.18" y="-158.3" font-family="Times,serif" font-size="14.00">FillMissing</text>
</g>
<!-- 13&#45;&gt;12 -->
<g id="edge15" class="edge">
<title>13&#45;&gt;12</title>
<path fill="none" stroke="black" d="M1266.71,-153.58C1159.23,-139.19 925.32,-107.88 835.4,-95.85"/>
<polygon fill="black" stroke="black" points="835.79,-92.37 825.41,-94.51 834.86,-99.31 835.79,-92.37"/>
</g>
<!-- 16 -->
<g id="node18" class="node">
<title>16</title>
<ellipse fill="none" stroke="black" cx="1423.18" cy="-234" rx="75.29" ry="18"/>
<text text-anchor="middle" x="1423.18" y="-230.3" font-family="Times,serif" font-size="14.00">DifferenceLag</text>
</g>
<!-- 16&#45;&gt;13 -->
<g id="edge18" class="edge">
<title>16&#45;&gt;13</title>
<path fill="none" stroke="black" d="M1399.76,-216.76C1386.02,-207.24 1368.49,-195.09 1353.57,-184.75"/>
<polygon fill="black" stroke="black" points="1355.34,-181.73 1345.13,-178.91 1351.36,-187.48 1355.34,-181.73"/>
</g>
<!-- 14 -->
<g id="node19" class="node">
<title>14</title>
<ellipse fill="none" stroke="black" cx="1077.18" cy="-306" rx="213.36" ry="18"/>
<text text-anchor="middle" x="1077.18" y="-302.3" font-family="Times,serif" font-size="14.00">input cols=[media, tweet_type, language...]</text>
</g>
<!-- 14&#45;&gt;20 -->
<g id="edge23" class="edge">
<title>14&#45;&gt;20</title>
<path fill="none" stroke="black" d="M1073.97,-287.7C1072.54,-279.98 1070.81,-270.71 1069.22,-262.11"/>
<polygon fill="black" stroke="black" points="1072.62,-261.3 1067.36,-252.1 1065.74,-262.58 1072.62,-261.3"/>
</g>
<!-- 15 -->
<g id="node20" class="node">
<title>15</title>
<ellipse fill="none" stroke="black" cx="1423.18" cy="-306" rx="114.28" ry="18"/>
<text text-anchor="middle" x="1423.18" y="-302.3" font-family="Times,serif" font-size="14.00">input cols=[b_user_id]</text>
</g>
<!-- 15&#45;&gt;16 -->
<g id="edge20" class="edge">
<title>15&#45;&gt;16</title>
<path fill="none" stroke="black" d="M1423.18,-287.7C1423.18,-279.98 1423.18,-270.71 1423.18,-262.11"/>
<polygon fill="black" stroke="black" points="1426.68,-262.1 1423.18,-252.1 1419.68,-262.1 1426.68,-262.1"/>
</g>
<!-- 19 -->
<g id="node21" class="node">
<title>19</title>
<ellipse fill="none" stroke="black" cx="1616.18" cy="-306" rx="61.19" ry="18"/>
<text text-anchor="middle" x="1616.18" y="-302.3" font-family="Times,serif" font-size="14.00">LambdaOp</text>
</g>
<!-- 19&#45;&gt;16 -->
<g id="edge19" class="edge">
<title>19&#45;&gt;16</title>
<path fill="none" stroke="black" d="M1578.97,-291.5C1548.66,-280.51 1505.61,-264.9 1472.45,-252.87"/>
<polygon fill="black" stroke="black" points="1473.53,-249.54 1462.94,-249.42 1471.14,-256.12 1473.53,-249.54"/>
</g>
<!-- 17 -->
<g id="node22" class="node">
<title>17</title>
<ellipse fill="none" stroke="black" cx="1616.18" cy="-378" rx="285.95" ry="18"/>
<text text-anchor="middle" x="1616.18" y="-374.3" font-family="Times,serif" font-size="14.00">input cols=[b_follower_count, b_following_count, language]</text>
</g>
<!-- 17&#45;&gt;19 -->
<g id="edge22" class="edge">
<title>17&#45;&gt;19</title>
<path fill="none" stroke="black" d="M1616.18,-359.7C1616.18,-351.98 1616.18,-342.71 1616.18,-334.11"/>
<polygon fill="black" stroke="black" points="1619.68,-334.1 1616.18,-324.1 1612.68,-334.1 1619.68,-334.1"/>
</g>
</g>
</svg>
