<?xml version="1.0" encoding="UTF-8" standalone="no"?>
<!DOCTYPE svg PUBLIC "-//W3C//DTD SVG 1.1//EN"
 "http://www.w3.org/Graphics/SVG/1.1/DTD/svg11.dtd">
<!-- Generated by graphviz version 2.43.0 (0)
 -->
<!-- Title: %3 Pages: 1 -->
<svg width="1054pt" height="332pt"
 viewBox="0.00 0.00 1053.51 332.00" xmlns="http://www.w3.org/2000/svg" xmlns:xlink="http://www.w3.org/1999/xlink">
<g id="graph0" class="graph" transform="scale(1 1) rotate(0) translate(4 328)">
<title>%3</title>
<polygon fill="white" stroke="transparent" points="-4,4 -4,-328 1049.51,-328 1049.51,4 -4,4"/>
<!-- 0 -->
<g id="node1" class="node">
<title>0</title>
<ellipse fill="none" stroke="black" cx="857.97" cy="-162" rx="40.89" ry="18"/>
<text text-anchor="middle" x="857.97" y="-158.3" font-family="Times,serif" font-size="14.00">LogOp</text>
</g>
<!-- 3 -->
<g id="node6" class="node">
<title>3</title>
<ellipse fill="none" stroke="black" cx="646.97" cy="-90" rx="27" ry="18"/>
<text text-anchor="middle" x="646.97" y="-86.3" font-family="Times,serif" font-size="14.00">+</text>
</g>
<!-- 0&#45;&gt;3 -->
<g id="edge5" class="edge">
<title>0&#45;&gt;3</title>
<path fill="none" stroke="black" d="M826.38,-150.52C787.06,-137.48 720.21,-115.3 680.16,-102.01"/>
<polygon fill="black" stroke="black" points="681.18,-98.66 670.59,-98.84 678.98,-105.31 681.18,-98.66"/>
</g>
<!-- 4 -->
<g id="node2" class="node">
<title>4</title>
<ellipse fill="none" stroke="black" cx="949.97" cy="-234" rx="95.58" ry="18"/>
<text text-anchor="middle" x="949.97" y="-230.3" font-family="Times,serif" font-size="14.00">input cols=[Sales]</text>
</g>
<!-- 4&#45;&gt;0 -->
<g id="edge1" class="edge">
<title>4&#45;&gt;0</title>
<path fill="none" stroke="black" d="M928.16,-216.41C915.49,-206.77 899.39,-194.52 885.81,-184.19"/>
<polygon fill="black" stroke="black" points="887.81,-181.31 877.73,-178.04 883.57,-186.88 887.81,-181.31"/>
</g>
<!-- 1 -->
<g id="node3" class="node">
<title>1</title>
<ellipse fill="none" stroke="black" cx="443.97" cy="-162" rx="58.49" ry="18"/>
<text text-anchor="middle" x="443.97" y="-158.3" font-family="Times,serif" font-size="14.00">Normalize</text>
</g>
<!-- 1&#45;&gt;3 -->
<g id="edge4" class="edge">
<title>1&#45;&gt;3</title>
<path fill="none" stroke="black" d="M481.67,-148C519.61,-134.91 577.55,-114.94 613.79,-102.44"/>
<polygon fill="black" stroke="black" points="615.09,-105.69 623.41,-99.12 612.81,-99.08 615.09,-105.69"/>
</g>
<!-- 7 -->
<g id="node4" class="node">
<title>7</title>
<ellipse fill="none" stroke="black" cx="376.97" cy="-234" rx="62.29" ry="18"/>
<text text-anchor="middle" x="376.97" y="-230.3" font-family="Times,serif" font-size="14.00">FillMissing</text>
</g>
<!-- 7&#45;&gt;1 -->
<g id="edge2" class="edge">
<title>7&#45;&gt;1</title>
<path fill="none" stroke="black" d="M392.84,-216.41C401.27,-207.61 411.78,-196.63 421.07,-186.92"/>
<polygon fill="black" stroke="black" points="423.82,-189.11 428.2,-179.47 418.76,-184.27 423.82,-189.11"/>
</g>
<!-- 2 -->
<g id="node5" class="node">
<title>2</title>
<ellipse fill="none" stroke="black" cx="376.97" cy="-306" rx="376.93" ry="18"/>
<text text-anchor="middle" x="376.97" y="-302.3" font-family="Times,serif" font-size="14.00">input cols=[CompetitionDistance, Max_TemperatureC, Mean_TemperatureC...]</text>
</g>
<!-- 2&#45;&gt;7 -->
<g id="edge7" class="edge">
<title>2&#45;&gt;7</title>
<path fill="none" stroke="black" d="M376.97,-287.7C376.97,-279.98 376.97,-270.71 376.97,-262.11"/>
<polygon fill="black" stroke="black" points="380.47,-262.1 376.97,-252.1 373.47,-262.1 380.47,-262.1"/>
</g>
<!-- 8 -->
<g id="node9" class="node">
<title>8</title>
<ellipse fill="none" stroke="black" cx="646.97" cy="-18" rx="196.07" ry="18"/>
<text text-anchor="middle" x="646.97" y="-14.3" font-family="Times,serif" font-size="14.00">output cols=[Store, DayOfWeek, Year...]</text>
</g>
<!-- 3&#45;&gt;8 -->
<g id="edge8" class="edge">
<title>3&#45;&gt;8</title>
<path fill="none" stroke="black" d="M646.97,-71.7C646.97,-63.98 646.97,-54.71 646.97,-46.11"/>
<polygon fill="black" stroke="black" points="650.47,-46.1 646.97,-36.1 643.47,-46.1 650.47,-46.1"/>
</g>
<!-- 6 -->
<g id="node7" class="node">
<title>6</title>
<ellipse fill="none" stroke="black" cx="646.97" cy="-162" rx="59.59" ry="18"/>
<text text-anchor="middle" x="646.97" y="-158.3" font-family="Times,serif" font-size="14.00">Categorify</text>
</g>
<!-- 6&#45;&gt;3 -->
<g id="edge3" class="edge">
<title>6&#45;&gt;3</title>
<path fill="none" stroke="black" d="M646.97,-143.7C646.97,-135.98 646.97,-126.71 646.97,-118.11"/>
<polygon fill="black" stroke="black" points="650.47,-118.1 646.97,-108.1 643.47,-118.1 650.47,-118.1"/>
</g>
<!-- 5 -->
<g id="node8" class="node">
<title>5</title>
<ellipse fill="none" stroke="black" cx="646.97" cy="-234" rx="189.57" ry="18"/>
<text text-anchor="middle" x="646.97" y="-230.3" font-family="Times,serif" font-size="14.00">input cols=[Store, DayOfWeek, Year...]</text>
</g>
<!-- 5&#45;&gt;6 -->
<g id="edge6" class="edge">
<title>5&#45;&gt;6</title>
<path fill="none" stroke="black" d="M646.97,-215.7C646.97,-207.98 646.97,-198.71 646.97,-190.11"/>
<polygon fill="black" stroke="black" points="650.47,-190.1 646.97,-180.1 643.47,-190.1 650.47,-190.1"/>
</g>
</g>
</svg>
