<?xml version="1.0" encoding="UTF-8" standalone="no"?>
<!DOCTYPE svg PUBLIC "-//W3C//DTD SVG 1.1//EN"
 "http://www.w3.org/Graphics/SVG/1.1/DTD/svg11.dtd">
<!-- Generated by graphviz version 2.43.0 (0)
 -->
<!-- Title: %3 Pages: 1 -->
<svg width="441pt" height="332pt"
 viewBox="0.00 0.00 440.92 332.00" xmlns="http://www.w3.org/2000/svg" xmlns:xlink="http://www.w3.org/1999/xlink">
<g id="graph0" class="graph" transform="scale(1 1) rotate(0) translate(4 328)">
<title>%3</title>
<polygon fill="white" stroke="transparent" points="-4,4 -4,-328 436.92,-328 436.92,4 -4,4"/>
<!-- 0 -->
<g id="node1" class="node">
<title>0</title>
<ellipse fill="none" stroke="black" cx="277.28" cy="-162" rx="59.59" ry="18"/>
<text text-anchor="middle" x="277.28" y="-158.3" font-family="Times,serif" font-size="14.00">Categorify</text>
</g>
<!-- 3 -->
<g id="node4" class="node">
<title>3</title>
<ellipse fill="none" stroke="black" cx="196.28" cy="-90" rx="27" ry="18"/>
<text text-anchor="middle" x="196.28" y="-86.3" font-family="Times,serif" font-size="14.00">+</text>
</g>
<!-- 0&#45;&gt;3 -->
<g id="edge3" class="edge">
<title>0&#45;&gt;3</title>
<path fill="none" stroke="black" d="M258.5,-144.76C246.99,-134.83 232.18,-122.02 219.89,-111.4"/>
<polygon fill="black" stroke="black" points="222.09,-108.68 212.24,-104.79 217.51,-113.97 222.09,-108.68"/>
</g>
<!-- 1 -->
<g id="node2" class="node">
<title>1</title>
<ellipse fill="none" stroke="black" cx="289.28" cy="-234" rx="68.49" ry="18"/>
<text text-anchor="middle" x="289.28" y="-230.3" font-family="Times,serif" font-size="14.00">JoinExternal</text>
</g>
<!-- 1&#45;&gt;0 -->
<g id="edge1" class="edge">
<title>1&#45;&gt;0</title>
<path fill="none" stroke="black" d="M286.32,-215.7C284.99,-207.98 283.4,-198.71 281.93,-190.11"/>
<polygon fill="black" stroke="black" points="285.35,-189.37 280.21,-180.1 278.45,-190.55 285.35,-189.37"/>
</g>
<!-- 2 -->
<g id="node3" class="node">
<title>2</title>
<ellipse fill="none" stroke="black" cx="289.28" cy="-306" rx="143.77" ry="18"/>
<text text-anchor="middle" x="289.28" y="-302.3" font-family="Times,serif" font-size="14.00">input cols=[userId, movieId]</text>
</g>
<!-- 2&#45;&gt;1 -->
<g id="edge2" class="edge">
<title>2&#45;&gt;1</title>
<path fill="none" stroke="black" d="M289.28,-287.7C289.28,-279.98 289.28,-270.71 289.28,-262.11"/>
<polygon fill="black" stroke="black" points="292.78,-262.1 289.28,-252.1 285.78,-262.1 292.78,-262.1"/>
</g>
<!-- 6 -->
<g id="node7" class="node">
<title>6</title>
<ellipse fill="none" stroke="black" cx="196.28" cy="-18" rx="196.07" ry="18"/>
<text text-anchor="middle" x="196.28" y="-14.3" font-family="Times,serif" font-size="14.00">output cols=[genres, userId, movieId...]</text>
</g>
<!-- 3&#45;&gt;6 -->
<g id="edge6" class="edge">
<title>3&#45;&gt;6</title>
<path fill="none" stroke="black" d="M196.28,-71.7C196.28,-63.98 196.28,-54.71 196.28,-46.11"/>
<polygon fill="black" stroke="black" points="199.78,-46.1 196.28,-36.1 192.78,-46.1 199.78,-46.1"/>
</g>
<!-- 5 -->
<g id="node5" class="node">
<title>5</title>
<ellipse fill="none" stroke="black" cx="127.28" cy="-162" rx="61.19" ry="18"/>
<text text-anchor="middle" x="127.28" y="-158.3" font-family="Times,serif" font-size="14.00">LambdaOp</text>
</g>
<!-- 5&#45;&gt;3 -->
<g id="edge4" class="edge">
<title>5&#45;&gt;3</title>
<path fill="none" stroke="black" d="M143.63,-144.41C152.91,-135 164.63,-123.12 174.65,-112.94"/>
<polygon fill="black" stroke="black" points="177.39,-115.15 181.92,-105.57 172.41,-110.24 177.39,-115.15"/>
</g>
<!-- 4 -->
<g id="node6" class="node">
<title>4</title>
<ellipse fill="none" stroke="black" cx="104.28" cy="-234" rx="98.58" ry="18"/>
<text text-anchor="middle" x="104.28" y="-230.3" font-family="Times,serif" font-size="14.00">input cols=[rating]</text>
</g>
<!-- 4&#45;&gt;5 -->
<g id="edge5" class="edge">
<title>4&#45;&gt;5</title>
<path fill="none" stroke="black" d="M109.97,-215.7C112.53,-207.9 115.62,-198.51 118.47,-189.83"/>
<polygon fill="black" stroke="black" points="121.87,-190.7 121.66,-180.1 115.22,-188.51 121.87,-190.7"/>
</g>
</g>
</svg>
