<?xml version="1.0" encoding="UTF-8" standalone="no"?>
<!DOCTYPE svg PUBLIC "-//W3C//DTD SVG 1.1//EN"
 "http://www.w3.org/Graphics/SVG/1.1/DTD/svg11.dtd">
<!-- Generated by graphviz version 2.40.1 (20161225.0304)
 -->
<!-- Title: %3 Pages: 1 -->
<svg width="683pt" height="332pt"
 viewBox="0.00 0.00 683.06 332.00" xmlns="http://www.w3.org/2000/svg" xmlns:xlink="http://www.w3.org/1999/xlink">
<g id="graph0" class="graph" transform="scale(1 1) rotate(0) translate(4 328)">
<title>%3</title>
<polygon fill="#ffffff" stroke="transparent" points="-4,4 -4,-328 679.06,-328 679.06,4 -4,4"/>
<!-- 0 -->
<g id="node1" class="node">
<title>0</title>
<ellipse fill="none" stroke="#000000" cx="501.0363" cy="-162" rx="35.9954" ry="18"/>
<text text-anchor="middle" x="501.0363" y="-158.3" font-family="Times,serif" font-size="14.00" fill="#000000">LogOp</text>
</g>
<!-- 2 -->
<g id="node4" class="node">
<title>2</title>
<ellipse fill="none" stroke="#000000" cx="378.0363" cy="-90" rx="27" ry="18"/>
<text text-anchor="middle" x="378.0363" y="-86.3" font-family="Times,serif" font-size="14.00" fill="#000000">+</text>
</g>
<!-- 0&#45;&gt;2 -->
<g id="edge4" class="edge">
<title>0&#45;&gt;2</title>
<path fill="none" stroke="#000000" d="M477.6115,-148.2879C457.607,-136.578 428.7417,-119.6812 407.235,-107.0919"/>
<polygon fill="#000000" stroke="#000000" points="408.9139,-104.0192 398.5156,-101.9879 405.3776,-110.0603 408.9139,-104.0192"/>
</g>
<!-- 5 -->
<g id="node2" class="node">
<title>5</title>
<ellipse fill="none" stroke="#000000" cx="523.0363" cy="-234" rx="75.2868" ry="18"/>
<text text-anchor="middle" x="523.0363" y="-230.3" font-family="Times,serif" font-size="14.00" fill="#000000">input cols=[Sales]</text>
</g>
<!-- 5&#45;&gt;0 -->
<g id="edge1" class="edge">
<title>5&#45;&gt;0</title>
<path fill="none" stroke="#000000" d="M517.4848,-215.8314C515.0694,-207.9266 512.1852,-198.4872 509.5114,-189.7365"/>
<polygon fill="#000000" stroke="#000000" points="512.7794,-188.4541 506.5099,-179.9134 506.0849,-190.4997 512.7794,-188.4541"/>
</g>
<!-- 1 -->
<g id="node3" class="node">
<title>1</title>
<ellipse fill="none" stroke="#000000" cx="378.0363" cy="-306" rx="297.0473" ry="18"/>
<text text-anchor="middle" x="378.0363" y="-302.3" font-family="Times,serif" font-size="14.00" fill="#000000">input cols=[CompetitionDistance, Max_TemperatureC, Mean_TemperatureC...]</text>
</g>
<!-- 6 -->
<g id="node8" class="node">
<title>6</title>
<ellipse fill="none" stroke="#000000" cx="378.0363" cy="-234" rx="51.9908" ry="18"/>
<text text-anchor="middle" x="378.0363" y="-230.3" font-family="Times,serif" font-size="14.00" fill="#000000">FillMissing</text>
</g>
<!-- 1&#45;&gt;6 -->
<g id="edge7" class="edge">
<title>1&#45;&gt;6</title>
<path fill="none" stroke="#000000" d="M378.0363,-287.8314C378.0363,-280.131 378.0363,-270.9743 378.0363,-262.4166"/>
<polygon fill="#000000" stroke="#000000" points="381.5364,-262.4132 378.0363,-252.4133 374.5364,-262.4133 381.5364,-262.4132"/>
</g>
<!-- 8 -->
<g id="node9" class="node">
<title>8</title>
<ellipse fill="none" stroke="#000000" cx="378.0363" cy="-18" rx="158.6719" ry="18"/>
<text text-anchor="middle" x="378.0363" y="-14.3" font-family="Times,serif" font-size="14.00" fill="#000000">output cols=[Store, DayOfWeek, Year...]</text>
</g>
<!-- 2&#45;&gt;8 -->
<g id="edge8" class="edge">
<title>2&#45;&gt;8</title>
<path fill="none" stroke="#000000" d="M378.0363,-71.8314C378.0363,-64.131 378.0363,-54.9743 378.0363,-46.4166"/>
<polygon fill="#000000" stroke="#000000" points="381.5364,-46.4132 378.0363,-36.4133 374.5364,-46.4133 381.5364,-46.4132"/>
</g>
<!-- 3 -->
<g id="node5" class="node">
<title>3</title>
<ellipse fill="none" stroke="#000000" cx="209.0363" cy="-162" rx="48.1917" ry="18"/>
<text text-anchor="middle" x="209.0363" y="-158.3" font-family="Times,serif" font-size="14.00" fill="#000000">Categorify</text>
</g>
<!-- 3&#45;&gt;2 -->
<g id="edge2" class="edge">
<title>3&#45;&gt;2</title>
<path fill="none" stroke="#000000" d="M240.8239,-148.4574C270.8487,-135.6657 315.657,-116.5758 345.8212,-103.7248"/>
<polygon fill="#000000" stroke="#000000" points="347.2348,-106.927 355.0629,-99.7875 344.4911,-100.4871 347.2348,-106.927"/>
</g>
<!-- 4 -->
<g id="node6" class="node">
<title>4</title>
<ellipse fill="none" stroke="#000000" cx="378.0363" cy="-162" rx="48.1917" ry="18"/>
<text text-anchor="middle" x="378.0363" y="-158.3" font-family="Times,serif" font-size="14.00" fill="#000000">Normalize</text>
</g>
<!-- 4&#45;&gt;2 -->
<g id="edge3" class="edge">
<title>4&#45;&gt;2</title>
<path fill="none" stroke="#000000" d="M378.0363,-143.8314C378.0363,-136.131 378.0363,-126.9743 378.0363,-118.4166"/>
<polygon fill="#000000" stroke="#000000" points="381.5364,-118.4132 378.0363,-108.4133 374.5364,-118.4133 381.5364,-118.4132"/>
</g>
<!-- 7 -->
<g id="node7" class="node">
<title>7</title>
<ellipse fill="none" stroke="#000000" cx="154.0363" cy="-234" rx="154.0727" ry="18"/>
<text text-anchor="middle" x="154.0363" y="-230.3" font-family="Times,serif" font-size="14.00" fill="#000000">input cols=[Store, DayOfWeek, Year...]</text>
</g>
<!-- 7&#45;&gt;3 -->
<g id="edge5" class="edge">
<title>7&#45;&gt;3</title>
<path fill="none" stroke="#000000" d="M167.9152,-215.8314C174.4448,-207.2835 182.3452,-196.9412 189.4689,-187.6156"/>
<polygon fill="#000000" stroke="#000000" points="192.442,-189.4891 195.7311,-179.4177 186.8793,-185.2398 192.442,-189.4891"/>
</g>
<!-- 6&#45;&gt;4 -->
<g id="edge6" class="edge">
<title>6&#45;&gt;4</title>
<path fill="none" stroke="#000000" d="M378.0363,-215.8314C378.0363,-208.131 378.0363,-198.9743 378.0363,-190.4166"/>
<polygon fill="#000000" stroke="#000000" points="381.5364,-190.4132 378.0363,-180.4133 374.5364,-190.4133 381.5364,-190.4132"/>
</g>
</g>
</svg>
