<?xml version="1.0" encoding="UTF-8" standalone="no"?>
<!DOCTYPE svg PUBLIC "-//W3C//DTD SVG 1.1//EN"
 "http://www.w3.org/Graphics/SVG/1.1/DTD/svg11.dtd">
<!-- Generated by graphviz version 2.42.3 (20191010.1750)
 -->
<!-- Title: %3 Pages: 1 -->
<svg width="851pt" height="332pt"
 viewBox="0.00 0.00 851.42 332.00" xmlns="http://www.w3.org/2000/svg" xmlns:xlink="http://www.w3.org/1999/xlink">
<g id="graph0" class="graph" transform="scale(1 1) rotate(0) translate(4 328)">
<title>%3</title>
<polygon fill="white" stroke="transparent" points="-4,4 -4,-328 847.42,-328 847.42,4 -4,4"/>
<!-- 0 -->
<g id="node1" class="node">
<title>0</title>
<ellipse fill="none" stroke="black" cx="491.39" cy="-162" rx="48.19" ry="18"/>
<text text-anchor="middle" x="491.39" y="-158.3" font-family="Times,serif" font-size="14.00">Normalize</text>
</g>
<!-- 6 -->
<g id="node8" class="node">
<title>6</title>
<ellipse fill="none" stroke="black" cx="322.39" cy="-90" rx="27" ry="18"/>
<text text-anchor="middle" x="322.39" y="-86.3" font-family="Times,serif" font-size="14.00">+</text>
</g>
<!-- 0&#45;&gt;6 -->
<g id="edge6" class="edge">
<title>0&#45;&gt;6</title>
<path fill="none" stroke="black" d="M460.4,-148.16C430.22,-135.66 384.57,-116.75 354.13,-104.15"/>
<polygon fill="black" stroke="black" points="355.41,-100.89 344.83,-100.29 352.73,-107.35 355.41,-100.89"/>
</g>
<!-- 5 -->
<g id="node2" class="node">
<title>5</title>
<ellipse fill="none" stroke="black" cx="546.39" cy="-234" rx="51.99" ry="18"/>
<text text-anchor="middle" x="546.39" y="-230.3" font-family="Times,serif" font-size="14.00">FillMissing</text>
</g>
<!-- 5&#45;&gt;0 -->
<g id="edge1" class="edge">
<title>5&#45;&gt;0</title>
<path fill="none" stroke="black" d="M533.36,-216.41C526.58,-207.78 518.16,-197.06 510.64,-187.5"/>
<polygon fill="black" stroke="black" points="513.26,-185.17 504.33,-179.47 507.76,-189.5 513.26,-185.17"/>
</g>
<!-- 1 -->
<g id="node3" class="node">
<title>1</title>
<ellipse fill="none" stroke="black" cx="148.39" cy="-162" rx="36" ry="18"/>
<text text-anchor="middle" x="148.39" y="-158.3" font-family="Times,serif" font-size="14.00">LogOp</text>
</g>
<!-- 1&#45;&gt;6 -->
<g id="edge7" class="edge">
<title>1&#45;&gt;6</title>
<path fill="none" stroke="black" d="M175.58,-150.06C206.59,-137.59 257.25,-117.21 290.21,-103.95"/>
<polygon fill="black" stroke="black" points="291.85,-107.06 299.82,-100.08 289.24,-100.56 291.85,-107.06"/>
</g>
<!-- 7 -->
<g id="node4" class="node">
<title>7</title>
<ellipse fill="none" stroke="black" cx="75.39" cy="-234" rx="75.29" ry="18"/>
<text text-anchor="middle" x="75.39" y="-230.3" font-family="Times,serif" font-size="14.00">input cols=[Sales]</text>
</g>
<!-- 7&#45;&gt;1 -->
<g id="edge2" class="edge">
<title>7&#45;&gt;1</title>
<path fill="none" stroke="black" d="M92.69,-216.41C102.33,-207.17 114.46,-195.54 124.94,-185.49"/>
<polygon fill="black" stroke="black" points="127.42,-187.96 132.22,-178.51 122.58,-182.91 127.42,-187.96"/>
</g>
<!-- 2 -->
<g id="node5" class="node">
<title>2</title>
<ellipse fill="none" stroke="black" cx="322.39" cy="-234" rx="154.07" ry="18"/>
<text text-anchor="middle" x="322.39" y="-230.3" font-family="Times,serif" font-size="14.00">input cols=[Store, DayOfWeek, Year...]</text>
</g>
<!-- 4 -->
<g id="node7" class="node">
<title>4</title>
<ellipse fill="none" stroke="black" cx="322.39" cy="-162" rx="48.19" ry="18"/>
<text text-anchor="middle" x="322.39" y="-158.3" font-family="Times,serif" font-size="14.00">Categorify</text>
</g>
<!-- 2&#45;&gt;4 -->
<g id="edge3" class="edge">
<title>2&#45;&gt;4</title>
<path fill="none" stroke="black" d="M322.39,-215.7C322.39,-207.98 322.39,-198.71 322.39,-190.11"/>
<polygon fill="black" stroke="black" points="325.89,-190.1 322.39,-180.1 318.89,-190.1 325.89,-190.1"/>
</g>
<!-- 3 -->
<g id="node6" class="node">
<title>3</title>
<ellipse fill="none" stroke="black" cx="546.39" cy="-306" rx="297.05" ry="18"/>
<text text-anchor="middle" x="546.39" y="-302.3" font-family="Times,serif" font-size="14.00">input cols=[CompetitionDistance, Max_TemperatureC, Mean_TemperatureC...]</text>
</g>
<!-- 3&#45;&gt;5 -->
<g id="edge4" class="edge">
<title>3&#45;&gt;5</title>
<path fill="none" stroke="black" d="M546.39,-287.7C546.39,-279.98 546.39,-270.71 546.39,-262.11"/>
<polygon fill="black" stroke="black" points="549.89,-262.1 546.39,-252.1 542.89,-262.1 549.89,-262.1"/>
</g>
<!-- 4&#45;&gt;6 -->
<g id="edge5" class="edge">
<title>4&#45;&gt;6</title>
<path fill="none" stroke="black" d="M322.39,-143.7C322.39,-135.98 322.39,-126.71 322.39,-118.11"/>
<polygon fill="black" stroke="black" points="325.89,-118.1 322.39,-108.1 318.89,-118.1 325.89,-118.1"/>
</g>
<!-- 8 -->
<g id="node9" class="node">
<title>8</title>
<ellipse fill="none" stroke="black" cx="322.39" cy="-18" rx="158.67" ry="18"/>
<text text-anchor="middle" x="322.39" y="-14.3" font-family="Times,serif" font-size="14.00">output cols=[Store, DayOfWeek, Year...]</text>
</g>
<!-- 6&#45;&gt;8 -->
<g id="edge8" class="edge">
<title>6&#45;&gt;8</title>
<path fill="none" stroke="black" d="M322.39,-71.7C322.39,-63.98 322.39,-54.71 322.39,-46.11"/>
<polygon fill="black" stroke="black" points="325.89,-46.1 322.39,-36.1 318.89,-46.1 325.89,-46.1"/>
</g>
</g>
</svg>
