<?xml version="1.0" encoding="UTF-8" standalone="no"?>
<!DOCTYPE svg PUBLIC "-//W3C//DTD SVG 1.1//EN"
 "http://www.w3.org/Graphics/SVG/1.1/DTD/svg11.dtd">
<!-- Generated by graphviz version 2.43.0 (0)
 -->
<!-- Title: %3 Pages: 1 -->
<svg width="1504pt" height="476pt"
 viewBox="0.00 0.00 1504.47 476.00" xmlns="http://www.w3.org/2000/svg" xmlns:xlink="http://www.w3.org/1999/xlink">
<g id="graph0" class="graph" transform="scale(1 1) rotate(0) translate(4 472)">
<title>%3</title>
<polygon fill="white" stroke="transparent" points="-4,4 -4,-472 1500.47,-472 1500.47,4 -4,4"/>
<!-- 0 -->
<g id="node1" class="node">
<title>0</title>
<ellipse fill="none" stroke="black" cx="1228.43" cy="-378" rx="61.19" ry="18"/>
<text text-anchor="middle" x="1228.43" y="-374.3" font-family="Times,serif" font-size="14.00">LambdaOp</text>
</g>
<!-- 9 -->
<g id="node14" class="node">
<title>9</title>
<ellipse fill="none" stroke="black" cx="1254.43" cy="-306" rx="48.19" ry="18"/>
<text text-anchor="middle" x="1254.43" y="-302.3" font-family="Times,serif" font-size="14.00">Rename</text>
</g>
<!-- 0&#45;&gt;9 -->
<g id="edge9" class="edge">
<title>0&#45;&gt;9</title>
<path fill="none" stroke="black" d="M1234.72,-360.05C1237.65,-352.18 1241.2,-342.62 1244.48,-333.79"/>
<polygon fill="black" stroke="black" points="1247.81,-334.87 1248.01,-324.28 1241.25,-332.43 1247.81,-334.87"/>
</g>
<!-- 7 -->
<g id="node2" class="node">
<title>7</title>
<ellipse fill="none" stroke="black" cx="1368.43" cy="-450" rx="128.08" ry="18"/>
<text text-anchor="middle" x="1368.43" y="-446.3" font-family="Times,serif" font-size="14.00">input cols=[geo_location]</text>
</g>
<!-- 7&#45;&gt;0 -->
<g id="edge1" class="edge">
<title>7&#45;&gt;0</title>
<path fill="none" stroke="black" d="M1335.61,-432.59C1315.19,-422.38 1288.83,-409.2 1267.36,-398.47"/>
<polygon fill="black" stroke="black" points="1268.7,-395.22 1258.19,-393.88 1265.56,-401.48 1268.7,-395.22"/>
</g>
<!-- 15 -->
<g id="node7" class="node">
<title>15</title>
<ellipse fill="none" stroke="black" cx="1368.43" cy="-378" rx="61.19" ry="18"/>
<text text-anchor="middle" x="1368.43" y="-374.3" font-family="Times,serif" font-size="14.00">LambdaOp</text>
</g>
<!-- 7&#45;&gt;15 -->
<g id="edge19" class="edge">
<title>7&#45;&gt;15</title>
<path fill="none" stroke="black" d="M1368.43,-431.7C1368.43,-423.98 1368.43,-414.71 1368.43,-406.11"/>
<polygon fill="black" stroke="black" points="1371.93,-406.1 1368.43,-396.1 1364.93,-406.1 1371.93,-406.1"/>
</g>
<!-- 13 -->
<g id="node17" class="node">
<title>13</title>
<ellipse fill="none" stroke="black" cx="1254.43" cy="-234" rx="27" ry="18"/>
<text text-anchor="middle" x="1254.43" y="-230.3" font-family="Times,serif" font-size="14.00">+</text>
</g>
<!-- 7&#45;&gt;13 -->
<g id="edge14" class="edge">
<title>7&#45;&gt;13</title>
<path fill="none" stroke="black" d="M1402.01,-432.53C1415.97,-423.77 1430.69,-411.56 1438.43,-396 1450.13,-372.47 1429.03,-292.07 1425.43,-288 1391.66,-249.84 1331,-238.82 1291.75,-235.83"/>
<polygon fill="black" stroke="black" points="1291.73,-232.32 1281.53,-235.19 1291.29,-239.31 1291.73,-232.32"/>
</g>
<!-- 1 -->
<g id="node3" class="node">
<title>1</title>
<ellipse fill="none" stroke="black" cx="513.43" cy="-234" rx="60.39" ry="18"/>
<text text-anchor="middle" x="513.43" y="-230.3" font-family="Times,serif" font-size="14.00">FillMedian</text>
</g>
<!-- 6 -->
<g id="node11" class="node">
<title>6</title>
<ellipse fill="none" stroke="black" cx="805.43" cy="-162" rx="40.89" ry="18"/>
<text text-anchor="middle" x="805.43" y="-158.3" font-family="Times,serif" font-size="14.00">LogOp</text>
</g>
<!-- 1&#45;&gt;6 -->
<g id="edge6" class="edge">
<title>1&#45;&gt;6</title>
<path fill="none" stroke="black" d="M563.42,-223.75C612.64,-214.25 689.76,-198.29 755.43,-180 758.57,-179.13 761.79,-178.17 765.03,-177.17"/>
<polygon fill="black" stroke="black" points="766.21,-180.46 774.66,-174.07 764.07,-173.8 766.21,-180.46"/>
</g>
<!-- 4 -->
<g id="node4" class="node">
<title>4</title>
<ellipse fill="none" stroke="black" cx="413.43" cy="-306" rx="104.78" ry="18"/>
<text text-anchor="middle" x="413.43" y="-302.3" font-family="Times,serif" font-size="14.00">DaysSincePublished</text>
</g>
<!-- 4&#45;&gt;1 -->
<g id="edge2" class="edge">
<title>4&#45;&gt;1</title>
<path fill="none" stroke="black" d="M437.13,-288.41C450.74,-278.88 468,-266.8 482.65,-256.55"/>
<polygon fill="black" stroke="black" points="484.75,-259.35 490.93,-250.75 480.73,-253.62 484.75,-259.35"/>
</g>
<!-- 2 -->
<g id="node5" class="node">
<title>2</title>
<ellipse fill="none" stroke="black" cx="643.43" cy="-162" rx="102.88" ry="18"/>
<text text-anchor="middle" x="643.43" y="-158.3" font-family="Times,serif" font-size="14.00">input cols=[clicked]</text>
</g>
<!-- 12 -->
<g id="node15" class="node">
<title>12</title>
<ellipse fill="none" stroke="black" cx="839.43" cy="-90" rx="27" ry="18"/>
<text text-anchor="middle" x="839.43" y="-86.3" font-family="Times,serif" font-size="14.00">+</text>
</g>
<!-- 2&#45;&gt;12 -->
<g id="edge13" class="edge">
<title>2&#45;&gt;12</title>
<path fill="none" stroke="black" d="M686.44,-145.64C722.59,-132.73 773.51,-114.54 806.49,-102.77"/>
<polygon fill="black" stroke="black" points="807.87,-105.99 816.11,-99.33 805.52,-99.4 807.87,-105.99"/>
</g>
<!-- 3 -->
<g id="node6" class="node">
<title>3</title>
<ellipse fill="none" stroke="black" cx="1368.43" cy="-306" rx="48.19" ry="18"/>
<text text-anchor="middle" x="1368.43" y="-302.3" font-family="Times,serif" font-size="14.00">Rename</text>
</g>
<!-- 3&#45;&gt;13 -->
<g id="edge15" class="edge">
<title>3&#45;&gt;13</title>
<path fill="none" stroke="black" d="M1344.53,-290.33C1326.38,-279.18 1301.38,-263.83 1282.32,-252.12"/>
<polygon fill="black" stroke="black" points="1284.11,-249.12 1273.76,-246.87 1280.45,-255.08 1284.11,-249.12"/>
</g>
<!-- 15&#45;&gt;3 -->
<g id="edge3" class="edge">
<title>15&#45;&gt;3</title>
<path fill="none" stroke="black" d="M1368.43,-359.7C1368.43,-351.98 1368.43,-342.71 1368.43,-334.11"/>
<polygon fill="black" stroke="black" points="1371.93,-334.1 1368.43,-324.1 1364.93,-334.1 1371.93,-334.1"/>
</g>
<!-- 11 -->
<g id="node8" class="node">
<title>11</title>
<ellipse fill="none" stroke="black" cx="229.43" cy="-378" rx="229.36" ry="18"/>
<text text-anchor="middle" x="229.43" y="-374.3" font-family="Times,serif" font-size="14.00">input cols=[publish_time, publish_time_promo]</text>
</g>
<!-- 11&#45;&gt;4 -->
<g id="edge4" class="edge">
<title>11&#45;&gt;4</title>
<path fill="none" stroke="black" d="M273.5,-360.23C300.32,-350.03 334.68,-336.96 362.64,-326.32"/>
<polygon fill="black" stroke="black" points="364.14,-329.5 372.24,-322.67 361.65,-322.96 364.14,-329.5"/>
</g>
<!-- 10 -->
<g id="node9" class="node">
<title>10</title>
<ellipse fill="none" stroke="black" cx="597.43" cy="-378" rx="120.48" ry="18"/>
<text text-anchor="middle" x="597.43" y="-374.3" font-family="Times,serif" font-size="14.00">input cols=[timestamp]</text>
</g>
<!-- 10&#45;&gt;4 -->
<g id="edge5" class="edge">
<title>10&#45;&gt;4</title>
<path fill="none" stroke="black" d="M555.68,-361.12C528.43,-350.75 492.71,-337.16 463.87,-326.19"/>
<polygon fill="black" stroke="black" points="464.97,-322.86 454.38,-322.58 462.48,-329.41 464.97,-322.86"/>
</g>
<!-- 5 -->
<g id="node10" class="node">
<title>5</title>
<ellipse fill="none" stroke="black" cx="973.43" cy="-306" rx="214.46" ry="18"/>
<text text-anchor="middle" x="973.43" y="-302.3" font-family="Times,serif" font-size="14.00">input cols=[ad_id, document_id, platform...]</text>
</g>
<!-- 8 -->
<g id="node12" class="node">
<title>8</title>
<ellipse fill="none" stroke="black" cx="874.43" cy="-234" rx="84.49" ry="18"/>
<text text-anchor="middle" x="874.43" y="-230.3" font-family="Times,serif" font-size="14.00">TargetEncoding</text>
</g>
<!-- 5&#45;&gt;8 -->
<g id="edge7" class="edge">
<title>5&#45;&gt;8</title>
<path fill="none" stroke="black" d="M949.46,-288.05C936.48,-278.87 920.27,-267.41 906.24,-257.49"/>
<polygon fill="black" stroke="black" points="908.02,-254.46 897.83,-251.55 903.98,-260.18 908.02,-254.46"/>
</g>
<!-- 5&#45;&gt;13 -->
<g id="edge17" class="edge">
<title>5&#45;&gt;13</title>
<path fill="none" stroke="black" d="M1038.6,-288.76C1095.01,-274.71 1174.41,-254.93 1219.51,-243.7"/>
<polygon fill="black" stroke="black" points="1220.54,-247.05 1229.4,-241.24 1218.85,-240.26 1220.54,-247.05"/>
</g>
<!-- 6&#45;&gt;12 -->
<g id="edge10" class="edge">
<title>6&#45;&gt;12</title>
<path fill="none" stroke="black" d="M813.66,-144.05C817.69,-135.77 822.62,-125.62 827.08,-116.42"/>
<polygon fill="black" stroke="black" points="830.29,-117.83 831.51,-107.31 823.99,-114.77 830.29,-117.83"/>
</g>
<!-- 8&#45;&gt;12 -->
<g id="edge12" class="edge">
<title>8&#45;&gt;12</title>
<path fill="none" stroke="black" d="M871.2,-215.84C867.72,-197.84 861.81,-168.79 855.43,-144 853.22,-135.4 850.52,-126.1 847.97,-117.73"/>
<polygon fill="black" stroke="black" points="851.28,-116.6 844.98,-108.08 844.6,-118.67 851.28,-116.6"/>
</g>
<!-- 16 -->
<g id="node13" class="node">
<title>16</title>
<ellipse fill="none" stroke="black" cx="638.43" cy="-306" rx="102.88" ry="18"/>
<text text-anchor="middle" x="638.43" y="-302.3" font-family="Times,serif" font-size="14.00">input cols=[clicked]</text>
</g>
<!-- 16&#45;&gt;8 -->
<g id="edge8" class="edge">
<title>16&#45;&gt;8</title>
<path fill="none" stroke="black" d="M688.19,-290.24C725.97,-279.04 777.96,-263.62 817.41,-251.91"/>
<polygon fill="black" stroke="black" points="818.56,-255.22 827.15,-249.02 816.57,-248.51 818.56,-255.22"/>
</g>
<!-- 9&#45;&gt;13 -->
<g id="edge16" class="edge">
<title>9&#45;&gt;13</title>
<path fill="none" stroke="black" d="M1254.43,-287.7C1254.43,-279.98 1254.43,-270.71 1254.43,-262.11"/>
<polygon fill="black" stroke="black" points="1257.93,-262.1 1254.43,-252.1 1250.93,-262.1 1257.93,-262.1"/>
</g>
<!-- 17 -->
<g id="node18" class="node">
<title>17</title>
<ellipse fill="none" stroke="black" cx="839.43" cy="-18" rx="464.12" ry="18"/>
<text text-anchor="middle" x="839.43" y="-14.3" font-family="Times,serif" font-size="14.00">output cols=[publish_time_since_published, publish_time_promo_since_published, geo_location...]</text>
</g>
<!-- 12&#45;&gt;17 -->
<g id="edge20" class="edge">
<title>12&#45;&gt;17</title>
<path fill="none" stroke="black" d="M839.43,-71.7C839.43,-63.98 839.43,-54.71 839.43,-46.11"/>
<polygon fill="black" stroke="black" points="842.93,-46.1 839.43,-36.1 835.93,-46.1 842.93,-46.1"/>
</g>
<!-- 14 -->
<g id="node16" class="node">
<title>14</title>
<ellipse fill="none" stroke="black" cx="1158.43" cy="-162" rx="59.59" ry="18"/>
<text text-anchor="middle" x="1158.43" y="-158.3" font-family="Times,serif" font-size="14.00">Categorify</text>
</g>
<!-- 14&#45;&gt;12 -->
<g id="edge11" class="edge">
<title>14&#45;&gt;12</title>
<path fill="none" stroke="black" d="M1111.7,-150.75C1047.35,-136.63 932.85,-111.5 875,-98.8"/>
<polygon fill="black" stroke="black" points="875.39,-95.31 864.88,-96.58 873.89,-102.15 875.39,-95.31"/>
</g>
<!-- 13&#45;&gt;14 -->
<g id="edge18" class="edge">
<title>13&#45;&gt;14</title>
<path fill="none" stroke="black" d="M1236.82,-220.16C1223.39,-210.37 1204.58,-196.65 1188.74,-185.1"/>
<polygon fill="black" stroke="black" points="1190.45,-182.02 1180.31,-178.95 1186.33,-187.67 1190.45,-182.02"/>
</g>
</g>
</svg>
