<?xml version="1.0" encoding="UTF-8" standalone="no"?>
<!DOCTYPE svg PUBLIC "-//W3C//DTD SVG 1.1//EN"
 "http://www.w3.org/Graphics/SVG/1.1/DTD/svg11.dtd">
<!-- Generated by graphviz version 2.42.3 (20191010.1750)
 -->
<!-- Title: %3 Pages: 1 -->
<svg width="611pt" height="260pt"
 viewBox="0.00 0.00 611.15 260.00" xmlns="http://www.w3.org/2000/svg" xmlns:xlink="http://www.w3.org/1999/xlink">
<g id="graph0" class="graph" transform="scale(1 1) rotate(0) translate(4 256)">
<title>%3</title>
<polygon fill="white" stroke="transparent" points="-4,4 -4,-256 607.15,-256 607.15,4 -4,4"/>
<!-- 0 -->
<g id="node1" class="node">
<title>0</title>
<ellipse fill="none" stroke="black" cx="301.57" cy="-90" rx="48.19" ry="18"/>
<text text-anchor="middle" x="301.57" y="-86.3" font-family="Times,serif" font-size="14.00">Normalize</text>
</g>
<!-- 3 -->
<g id="node4" class="node">
<title>3</title>
<ellipse fill="none" stroke="black" cx="301.57" cy="-18" rx="301.65" ry="18"/>
<text text-anchor="middle" x="301.57" y="-14.3" font-family="Times,serif" font-size="14.00">output cols=[CompetitionDistance, Max_TemperatureC, Mean_TemperatureC...]</text>
</g>
<!-- 0&#45;&gt;3 -->
<g id="edge3" class="edge">
<title>0&#45;&gt;3</title>
<path fill="none" stroke="black" d="M301.57,-71.7C301.57,-63.98 301.57,-54.71 301.57,-46.11"/>
<polygon fill="black" stroke="black" points="305.07,-46.1 301.57,-36.1 298.07,-46.1 305.07,-46.1"/>
</g>
<!-- 2 -->
<g id="node2" class="node">
<title>2</title>
<ellipse fill="none" stroke="black" cx="301.57" cy="-162" rx="51.99" ry="18"/>
<text text-anchor="middle" x="301.57" y="-158.3" font-family="Times,serif" font-size="14.00">FillMissing</text>
</g>
<!-- 2&#45;&gt;0 -->
<g id="edge1" class="edge">
<title>2&#45;&gt;0</title>
<path fill="none" stroke="black" d="M301.57,-143.7C301.57,-135.98 301.57,-126.71 301.57,-118.11"/>
<polygon fill="black" stroke="black" points="305.07,-118.1 301.57,-108.1 298.07,-118.1 305.07,-118.1"/>
</g>
<!-- 1 -->
<g id="node3" class="node">
<title>1</title>
<ellipse fill="none" stroke="black" cx="301.57" cy="-234" rx="297.05" ry="18"/>
<text text-anchor="middle" x="301.57" y="-230.3" font-family="Times,serif" font-size="14.00">input cols=[CompetitionDistance, Max_TemperatureC, Mean_TemperatureC...]</text>
</g>
<!-- 1&#45;&gt;2 -->
<g id="edge2" class="edge">
<title>1&#45;&gt;2</title>
<path fill="none" stroke="black" d="M301.57,-215.7C301.57,-207.98 301.57,-198.71 301.57,-190.11"/>
<polygon fill="black" stroke="black" points="305.07,-190.1 301.57,-180.1 298.07,-190.1 305.07,-190.1"/>
</g>
</g>
</svg>
