<?xml version="1.0" encoding="UTF-8" standalone="no"?>
<!DOCTYPE svg PUBLIC "-//W3C//DTD SVG 1.1//EN"
 "http://www.w3.org/Graphics/SVG/1.1/DTD/svg11.dtd">
<!-- Generated by graphviz version 2.43.0 (0)
 -->
<!-- Title: %3 Pages: 1 -->
<svg width="401pt" height="188pt"
 viewBox="0.00 0.00 400.57 188.00" xmlns="http://www.w3.org/2000/svg" xmlns:xlink="http://www.w3.org/1999/xlink">
<g id="graph0" class="graph" transform="scale(1 1) rotate(0) translate(4 184)">
<title>%3</title>
<polygon fill="white" stroke="transparent" points="-4,4 -4,-184 396.57,-184 396.57,4 -4,4"/>
<!-- 0 -->
<g id="node1" class="node">
<title>0</title>
<ellipse fill="none" stroke="black" cx="196.28" cy="-162" rx="189.57" ry="18"/>
<text text-anchor="middle" x="196.28" y="-158.3" font-family="Times,serif" font-size="14.00">input cols=[Store, DayOfWeek, Year...]</text>
</g>
<!-- 1 -->
<g id="node2" class="node">
<title>1</title>
<ellipse fill="none" stroke="black" cx="196.28" cy="-90" rx="59.59" ry="18"/>
<text text-anchor="middle" x="196.28" y="-86.3" font-family="Times,serif" font-size="14.00">Categorify</text>
</g>
<!-- 0&#45;&gt;1 -->
<g id="edge1" class="edge">
<title>0&#45;&gt;1</title>
<path fill="none" stroke="black" d="M196.28,-143.7C196.28,-135.98 196.28,-126.71 196.28,-118.11"/>
<polygon fill="black" stroke="black" points="199.78,-118.1 196.28,-108.1 192.78,-118.1 199.78,-118.1"/>
</g>
<!-- 2 -->
<g id="node3" class="node">
<title>2</title>
<ellipse fill="none" stroke="black" cx="196.28" cy="-18" rx="196.07" ry="18"/>
<text text-anchor="middle" x="196.28" y="-14.3" font-family="Times,serif" font-size="14.00">output cols=[Store, DayOfWeek, Year...]</text>
</g>
<!-- 1&#45;&gt;2 -->
<g id="edge2" class="edge">
<title>1&#45;&gt;2</title>
<path fill="none" stroke="black" d="M196.28,-71.7C196.28,-63.98 196.28,-54.71 196.28,-46.11"/>
<polygon fill="black" stroke="black" points="199.78,-46.1 196.28,-36.1 192.78,-46.1 199.78,-46.1"/>
</g>
</g>
</svg>
