<?xml version="1.0" encoding="UTF-8" standalone="no"?>
<!DOCTYPE svg PUBLIC "-//W3C//DTD SVG 1.1//EN"
 "http://www.w3.org/Graphics/SVG/1.1/DTD/svg11.dtd">
<!-- Generated by graphviz version 2.43.0 (0)
 -->
<!-- Title: %3 Pages: 1 -->
<svg width="2923pt" height="476pt"
 viewBox="0.00 0.00 2923.11 476.00" xmlns="http://www.w3.org/2000/svg" xmlns:xlink="http://www.w3.org/1999/xlink">
<g id="graph0" class="graph" transform="scale(1 1) rotate(0) translate(4 472)">
<title>%3</title>
<polygon fill="white" stroke="transparent" points="-4,4 -4,-472 2919.11,-472 2919.11,4 -4,4"/>
<!-- 0 -->
<g id="node1" class="node">
<title>0</title>
<ellipse fill="none" stroke="black" cx="2764.98" cy="-306" rx="48.19" ry="18"/>
<text text-anchor="middle" x="2764.98" y="-302.3" font-family="Times,serif" font-size="14.00">Rename</text>
</g>
<!-- 5 -->
<g id="node11" class="node">
<title>5</title>
<ellipse fill="none" stroke="black" cx="1905.98" cy="-234" rx="27" ry="18"/>
<text text-anchor="middle" x="1905.98" y="-230.3" font-family="Times,serif" font-size="14.00">+</text>
</g>
<!-- 0&#45;&gt;5 -->
<g id="edge9" class="edge">
<title>0&#45;&gt;5</title>
<path fill="none" stroke="black" d="M2730.61,-293.4C2723.22,-291.29 2715.4,-289.33 2707.98,-288 2416.98,-235.67 2058.28,-233.66 1943.29,-234.52"/>
<polygon fill="black" stroke="black" points="1943.22,-231.02 1933.25,-234.6 1943.28,-238.02 1943.22,-231.02"/>
</g>
<!-- 10 -->
<g id="node2" class="node">
<title>10</title>
<ellipse fill="none" stroke="black" cx="2764.98" cy="-378" rx="150.27" ry="18"/>
<text text-anchor="middle" x="2764.98" y="-374.3" font-family="Times,serif" font-size="14.00">(lambda col: col.str.slice(0, 2))</text>
</g>
<!-- 10&#45;&gt;0 -->
<g id="edge1" class="edge">
<title>10&#45;&gt;0</title>
<path fill="none" stroke="black" d="M2764.98,-359.7C2764.98,-351.98 2764.98,-342.71 2764.98,-334.11"/>
<polygon fill="black" stroke="black" points="2768.48,-334.1 2764.98,-324.1 2761.48,-334.1 2768.48,-334.1"/>
</g>
<!-- 1 -->
<g id="node3" class="node">
<title>1</title>
<ellipse fill="none" stroke="black" cx="246.98" cy="-234" rx="60.39" ry="18"/>
<text text-anchor="middle" x="246.98" y="-230.3" font-family="Times,serif" font-size="14.00">FillMedian</text>
</g>
<!-- 2 -->
<g id="node5" class="node">
<title>2</title>
<ellipse fill="none" stroke="black" cx="598.98" cy="-162" rx="40.89" ry="18"/>
<text text-anchor="middle" x="598.98" y="-158.3" font-family="Times,serif" font-size="14.00">LogOp</text>
</g>
<!-- 1&#45;&gt;2 -->
<g id="edge3" class="edge">
<title>1&#45;&gt;2</title>
<path fill="none" stroke="black" d="M291.43,-221.66C299.58,-219.69 308.02,-217.72 315.98,-216 398.3,-198.17 494.87,-180.85 551.26,-171.09"/>
<polygon fill="black" stroke="black" points="552.04,-174.51 561.3,-169.36 550.86,-167.61 552.04,-174.51"/>
</g>
<!-- 7 -->
<g id="node4" class="node">
<title>7</title>
<ellipse fill="none" stroke="black" cx="246.98" cy="-306" rx="104.78" ry="18"/>
<text text-anchor="middle" x="246.98" y="-302.3" font-family="Times,serif" font-size="14.00">DaysSincePublished</text>
</g>
<!-- 7&#45;&gt;1 -->
<g id="edge2" class="edge">
<title>7&#45;&gt;1</title>
<path fill="none" stroke="black" d="M246.98,-287.7C246.98,-279.98 246.98,-270.71 246.98,-262.11"/>
<polygon fill="black" stroke="black" points="250.48,-262.1 246.98,-252.1 243.48,-262.1 250.48,-262.1"/>
</g>
<!-- 3 -->
<g id="node6" class="node">
<title>3</title>
<ellipse fill="none" stroke="black" cx="1170.98" cy="-90" rx="27" ry="18"/>
<text text-anchor="middle" x="1170.98" y="-86.3" font-family="Times,serif" font-size="14.00">+</text>
</g>
<!-- 2&#45;&gt;3 -->
<g id="edge4" class="edge">
<title>2&#45;&gt;3</title>
<path fill="none" stroke="black" d="M637.84,-156.24C743,-143.37 1032.06,-108 1134.44,-95.47"/>
<polygon fill="black" stroke="black" points="1135.09,-98.92 1144.59,-94.23 1134.24,-91.97 1135.09,-98.92"/>
</g>
<!-- 11 -->
<g id="node18" class="node">
<title>11</title>
<ellipse fill="none" stroke="black" cx="1170.98" cy="-18" rx="62.29" ry="18"/>
<text text-anchor="middle" x="1170.98" y="-14.3" font-family="Times,serif" font-size="14.00">output cols</text>
</g>
<!-- 3&#45;&gt;11 -->
<g id="edge17" class="edge">
<title>3&#45;&gt;11</title>
<path fill="none" stroke="black" d="M1170.98,-71.7C1170.98,-63.98 1170.98,-54.71 1170.98,-46.11"/>
<polygon fill="black" stroke="black" points="1174.48,-46.1 1170.98,-36.1 1167.48,-46.1 1174.48,-46.1"/>
</g>
<!-- 9 -->
<g id="node7" class="node">
<title>9</title>
<ellipse fill="none" stroke="black" cx="1643.98" cy="-162" rx="59.59" ry="18"/>
<text text-anchor="middle" x="1643.98" y="-158.3" font-family="Times,serif" font-size="14.00">Categorify</text>
</g>
<!-- 9&#45;&gt;3 -->
<g id="edge5" class="edge">
<title>9&#45;&gt;3</title>
<path fill="none" stroke="black" d="M1591.55,-153.24C1494.67,-138.9 1289.95,-108.61 1207.01,-96.33"/>
<polygon fill="black" stroke="black" points="1207.46,-92.86 1197.05,-94.86 1206.43,-99.78 1207.46,-92.86"/>
</g>
<!-- 4 -->
<g id="node8" class="node">
<title>4</title>
<ellipse fill="none" stroke="black" cx="1092.98" cy="-162" rx="84.49" ry="18"/>
<text text-anchor="middle" x="1092.98" y="-158.3" font-family="Times,serif" font-size="14.00">TargetEncoding</text>
</g>
<!-- 4&#45;&gt;3 -->
<g id="edge6" class="edge">
<title>4&#45;&gt;3</title>
<path fill="none" stroke="black" d="M1111.46,-144.41C1122.37,-134.62 1136.27,-122.15 1147.9,-111.72"/>
<polygon fill="black" stroke="black" points="1150.41,-114.16 1155.51,-104.88 1145.73,-108.95 1150.41,-114.16"/>
</g>
<!-- 3_selector -->
<g id="node9" class="node">
<title>3_selector</title>
<ellipse fill="none" stroke="black" cx="1249.98" cy="-162" rx="54.69" ry="18"/>
<text text-anchor="middle" x="1249.98" y="-158.3" font-family="Times,serif" font-size="14.00">[&#39;clicked&#39;]</text>
</g>
<!-- 3_selector&#45;&gt;3 -->
<g id="edge7" class="edge">
<title>3_selector&#45;&gt;3</title>
<path fill="none" stroke="black" d="M1231.66,-144.76C1220.54,-134.92 1206.26,-122.26 1194.34,-111.7"/>
<polygon fill="black" stroke="black" points="1196.34,-108.8 1186.54,-104.79 1191.7,-114.04 1196.34,-108.8"/>
</g>
<!-- 4_selector -->
<g id="node10" class="node">
<title>4_selector</title>
<ellipse fill="none" stroke="black" cx="1092.98" cy="-234" rx="767.66" ry="18"/>
<text text-anchor="middle" x="1092.98" y="-230.3" font-family="Times,serif" font-size="14.00">[&#39;ad_id&#39;, &#39;document_id&#39;, &#39;platform&#39;, &#39;document_id_promo&#39;, &#39;campaign_id&#39;, &#39;advertiser_id&#39;, &#39;source_id&#39;, &#39;publisher_id&#39;, &#39;source_id_promo&#39;, &#39;publisher_id_promo&#39;, &#39;clicked&#39;]</text>
</g>
<!-- 4_selector&#45;&gt;4 -->
<g id="edge8" class="edge">
<title>4_selector&#45;&gt;4</title>
<path fill="none" stroke="black" d="M1092.98,-215.7C1092.98,-207.98 1092.98,-198.71 1092.98,-190.11"/>
<polygon fill="black" stroke="black" points="1096.48,-190.1 1092.98,-180.1 1089.48,-190.1 1096.48,-190.1"/>
</g>
<!-- 5&#45;&gt;9 -->
<g id="edge15" class="edge">
<title>5&#45;&gt;9</title>
<path fill="none" stroke="black" d="M1885.35,-222.35C1880.4,-220.05 1875.07,-217.78 1869.98,-216 1815.21,-196.89 1750.58,-182.51 1704.5,-173.59"/>
<polygon fill="black" stroke="black" points="1705.14,-170.15 1694.66,-171.71 1703.83,-177.02 1705.14,-170.15"/>
</g>
<!-- 8 -->
<g id="node12" class="node">
<title>8</title>
<ellipse fill="none" stroke="black" cx="1046.98" cy="-306" rx="48.19" ry="18"/>
<text text-anchor="middle" x="1046.98" y="-302.3" font-family="Times,serif" font-size="14.00">Rename</text>
</g>
<!-- 8&#45;&gt;5 -->
<g id="edge10" class="edge">
<title>8&#45;&gt;5</title>
<path fill="none" stroke="black" d="M1081.32,-293.3C1088.72,-291.19 1096.55,-289.26 1103.98,-288 1439.98,-230.88 1539.26,-334.36 1869.98,-252 1872.16,-251.46 1874.36,-250.78 1876.56,-250.01"/>
<polygon fill="black" stroke="black" points="1878.01,-253.19 1885.94,-246.16 1875.36,-246.72 1878.01,-253.19"/>
</g>
<!-- 5_selector -->
<g id="node13" class="node">
<title>5_selector</title>
<ellipse fill="none" stroke="black" cx="1905.98" cy="-306" rx="792.86" ry="18"/>
<text text-anchor="middle" x="1905.98" y="-302.3" font-family="Times,serif" font-size="14.00">[&#39;geo_location&#39;, &#39;ad_id&#39;, &#39;document_id&#39;, &#39;platform&#39;, &#39;document_id_promo&#39;, &#39;campaign_id&#39;, &#39;advertiser_id&#39;, &#39;source_id&#39;, &#39;publisher_id&#39;, &#39;source_id_promo&#39;, &#39;publisher_id_promo&#39;]</text>
</g>
<!-- 5_selector&#45;&gt;5 -->
<g id="edge11" class="edge">
<title>5_selector&#45;&gt;5</title>
<path fill="none" stroke="black" d="M1905.98,-287.7C1905.98,-279.98 1905.98,-270.71 1905.98,-262.11"/>
<polygon fill="black" stroke="black" points="1909.48,-262.1 1905.98,-252.1 1902.48,-262.1 1909.48,-262.1"/>
</g>
<!-- 6 -->
<g id="node14" class="node">
<title>6</title>
<ellipse fill="none" stroke="black" cx="1046.98" cy="-378" rx="150.27" ry="18"/>
<text text-anchor="middle" x="1046.98" y="-374.3" font-family="Times,serif" font-size="14.00">(lambda col: col.str.slice(0, 5))</text>
</g>
<!-- 6&#45;&gt;8 -->
<g id="edge14" class="edge">
<title>6&#45;&gt;8</title>
<path fill="none" stroke="black" d="M1046.98,-359.7C1046.98,-351.98 1046.98,-342.71 1046.98,-334.11"/>
<polygon fill="black" stroke="black" points="1050.48,-334.1 1046.98,-324.1 1043.48,-334.1 1050.48,-334.1"/>
</g>
<!-- 6_selector -->
<g id="node15" class="node">
<title>6_selector</title>
<ellipse fill="none" stroke="black" cx="1046.98" cy="-450" rx="79.89" ry="18"/>
<text text-anchor="middle" x="1046.98" y="-446.3" font-family="Times,serif" font-size="14.00">[&#39;geo_location&#39;]</text>
</g>
<!-- 6_selector&#45;&gt;6 -->
<g id="edge12" class="edge">
<title>6_selector&#45;&gt;6</title>
<path fill="none" stroke="black" d="M1046.98,-431.7C1046.98,-423.98 1046.98,-414.71 1046.98,-406.11"/>
<polygon fill="black" stroke="black" points="1050.48,-406.1 1046.98,-396.1 1043.48,-406.1 1050.48,-406.1"/>
</g>
<!-- 7_selector -->
<g id="node16" class="node">
<title>7_selector</title>
<ellipse fill="none" stroke="black" cx="246.98" cy="-378" rx="246.96" ry="18"/>
<text text-anchor="middle" x="246.98" y="-374.3" font-family="Times,serif" font-size="14.00">[&#39;publish_time&#39;, &#39;publish_time_promo&#39;, &#39;timestamp&#39;]</text>
</g>
<!-- 7_selector&#45;&gt;7 -->
<g id="edge13" class="edge">
<title>7_selector&#45;&gt;7</title>
<path fill="none" stroke="black" d="M246.98,-359.7C246.98,-351.98 246.98,-342.71 246.98,-334.11"/>
<polygon fill="black" stroke="black" points="250.48,-334.1 246.98,-324.1 243.48,-334.1 250.48,-334.1"/>
</g>
<!-- 10_selector -->
<g id="node17" class="node">
<title>10_selector</title>
<ellipse fill="none" stroke="black" cx="2764.98" cy="-450" rx="79.89" ry="18"/>
<text text-anchor="middle" x="2764.98" y="-446.3" font-family="Times,serif" font-size="14.00">[&#39;geo_location&#39;]</text>
</g>
<!-- 10_selector&#45;&gt;10 -->
<g id="edge16" class="edge">
<title>10_selector&#45;&gt;10</title>
<path fill="none" stroke="black" d="M2764.98,-431.7C2764.98,-423.98 2764.98,-414.71 2764.98,-406.11"/>
<polygon fill="black" stroke="black" points="2768.48,-406.1 2764.98,-396.1 2761.48,-406.1 2768.48,-406.1"/>
</g>
</g>
</svg>
