<?xml version="1.0" encoding="UTF-8" standalone="no"?>
<!DOCTYPE svg PUBLIC "-//W3C//DTD SVG 1.1//EN"
 "http://www.w3.org/Graphics/SVG/1.1/DTD/svg11.dtd">
<!-- Generated by graphviz version 2.42.3 (20191010.1750)
 -->
<!-- Title: %3 Pages: 1 -->
<svg width="1229pt" height="404pt"
 viewBox="0.00 0.00 1228.88 404.00" xmlns="http://www.w3.org/2000/svg" xmlns:xlink="http://www.w3.org/1999/xlink">
<g id="graph0" class="graph" transform="scale(1 1) rotate(0) translate(4 400)">
<title>%3</title>
<polygon fill="white" stroke="transparent" points="-4,4 -4,-400 1224.88,-400 1224.88,4 -4,4"/>
<!-- 0 -->
<g id="node1" class="node">
<title>0</title>
<ellipse fill="none" stroke="black" cx="1043.64" cy="-162" rx="40.09" ry="18"/>
<text text-anchor="middle" x="1043.64" y="-158.3" font-family="Times,serif" font-size="14.00">Rename</text>
</g>
<!-- 14 -->
<g id="node16" class="node">
<title>14</title>
<ellipse fill="none" stroke="black" cx="782.64" cy="-90" rx="27" ry="18"/>
<text text-anchor="middle" x="782.64" y="-86.3" font-family="Times,serif" font-size="14.00">+</text>
</g>
<!-- 0&#45;&gt;14 -->
<g id="edge14" class="edge">
<title>0&#45;&gt;14</title>
<path fill="none" stroke="black" d="M1010.06,-151.99C960.21,-138.62 867.14,-113.66 816.91,-100.19"/>
<polygon fill="black" stroke="black" points="817.73,-96.79 807.16,-97.58 815.91,-103.55 817.73,-96.79"/>
</g>
<!-- 15 -->
<g id="node2" class="node">
<title>15</title>
<ellipse fill="none" stroke="black" cx="1126.64" cy="-234" rx="50.89" ry="18"/>
<text text-anchor="middle" x="1126.64" y="-230.3" font-family="Times,serif" font-size="14.00">LambdaOp</text>
</g>
<!-- 15&#45;&gt;0 -->
<g id="edge1" class="edge">
<title>15&#45;&gt;0</title>
<path fill="none" stroke="black" d="M1107.81,-217.12C1096.51,-207.59 1081.98,-195.33 1069.6,-184.89"/>
<polygon fill="black" stroke="black" points="1071.73,-182.11 1061.83,-178.34 1067.22,-187.46 1071.73,-182.11"/>
</g>
<!-- 1 -->
<g id="node3" class="node">
<title>1</title>
<ellipse fill="none" stroke="black" cx="876.64" cy="-234" rx="181.17" ry="18"/>
<text text-anchor="middle" x="876.64" y="-230.3" font-family="Times,serif" font-size="14.00">input cols=[reply, retweet, retweet_comment...]</text>
</g>
<!-- 8 -->
<g id="node14" class="node">
<title>8</title>
<ellipse fill="none" stroke="black" cx="850.64" cy="-162" rx="51.99" ry="18"/>
<text text-anchor="middle" x="850.64" y="-158.3" font-family="Times,serif" font-size="14.00">FillMissing</text>
</g>
<!-- 1&#45;&gt;8 -->
<g id="edge6" class="edge">
<title>1&#45;&gt;8</title>
<path fill="none" stroke="black" d="M870.22,-215.7C867.29,-207.81 863.76,-198.3 860.5,-189.55"/>
<polygon fill="black" stroke="black" points="863.76,-188.26 857,-180.1 857.2,-190.7 863.76,-188.26"/>
</g>
<!-- 2 -->
<g id="node4" class="node">
<title>2</title>
<ellipse fill="none" stroke="black" cx="137.64" cy="-306" rx="50.89" ry="18"/>
<text text-anchor="middle" x="137.64" y="-302.3" font-family="Times,serif" font-size="14.00">LambdaOp</text>
</g>
<!-- 10 -->
<g id="node11" class="node">
<title>10</title>
<ellipse fill="none" stroke="black" cx="493.64" cy="-234" rx="27" ry="18"/>
<text text-anchor="middle" x="493.64" y="-230.3" font-family="Times,serif" font-size="14.00">+</text>
</g>
<!-- 2&#45;&gt;10 -->
<g id="edge7" class="edge">
<title>2&#45;&gt;10</title>
<path fill="none" stroke="black" d="M180.94,-296.49C252,-282.51 392.04,-254.98 457.86,-242.04"/>
<polygon fill="black" stroke="black" points="458.63,-245.45 467.76,-240.09 457.28,-238.58 458.63,-245.45"/>
</g>
<!-- 13 -->
<g id="node5" class="node">
<title>13</title>
<ellipse fill="none" stroke="black" cx="78.64" cy="-378" rx="78.79" ry="18"/>
<text text-anchor="middle" x="78.64" y="-374.3" font-family="Times,serif" font-size="14.00">input cols=[media]</text>
</g>
<!-- 13&#45;&gt;2 -->
<g id="edge2" class="edge">
<title>13&#45;&gt;2</title>
<path fill="none" stroke="black" d="M92.93,-360.05C100.1,-351.54 108.93,-341.07 116.84,-331.68"/>
<polygon fill="black" stroke="black" points="119.72,-333.69 123.49,-323.79 114.37,-329.18 119.72,-333.69"/>
</g>
<!-- 3 -->
<g id="node6" class="node">
<title>3</title>
<ellipse fill="none" stroke="black" cx="1126.64" cy="-306" rx="94.48" ry="18"/>
<text text-anchor="middle" x="1126.64" y="-302.3" font-family="Times,serif" font-size="14.00">input cols=[timestamp]</text>
</g>
<!-- 3&#45;&gt;15 -->
<g id="edge15" class="edge">
<title>3&#45;&gt;15</title>
<path fill="none" stroke="black" d="M1126.64,-287.7C1126.64,-279.98 1126.64,-270.71 1126.64,-262.11"/>
<polygon fill="black" stroke="black" points="1130.14,-262.1 1126.64,-252.1 1123.14,-262.1 1130.14,-262.1"/>
</g>
<!-- 4 -->
<g id="node7" class="node">
<title>4</title>
<ellipse fill="none" stroke="black" cx="288.64" cy="-306" rx="51.99" ry="18"/>
<text text-anchor="middle" x="288.64" y="-302.3" font-family="Times,serif" font-size="14.00">FillMissing</text>
</g>
<!-- 4&#45;&gt;10 -->
<g id="edge8" class="edge">
<title>4&#45;&gt;10</title>
<path fill="none" stroke="black" d="M324.35,-292.81C362.62,-279.74 422.9,-259.16 460.26,-246.4"/>
<polygon fill="black" stroke="black" points="461.81,-249.57 470.15,-243.02 459.55,-242.94 461.81,-249.57"/>
</g>
<!-- 9 -->
<g id="node8" class="node">
<title>9</title>
<ellipse fill="none" stroke="black" cx="318.64" cy="-378" rx="143.77" ry="18"/>
<text text-anchor="middle" x="318.64" y="-374.3" font-family="Times,serif" font-size="14.00">input cols=[hashtags, domains, links]</text>
</g>
<!-- 9&#45;&gt;4 -->
<g id="edge3" class="edge">
<title>9&#45;&gt;4</title>
<path fill="none" stroke="black" d="M311.23,-359.7C307.85,-351.81 303.77,-342.3 300.02,-333.55"/>
<polygon fill="black" stroke="black" points="303.13,-331.92 295.97,-324.1 296.7,-334.67 303.13,-331.92"/>
</g>
<!-- 5 -->
<g id="node9" class="node">
<title>5</title>
<ellipse fill="none" stroke="black" cx="868.64" cy="-306" rx="143.77" ry="18"/>
<text text-anchor="middle" x="868.64" y="-302.3" font-family="Times,serif" font-size="14.00">input cols=[hashtags, domains, links]</text>
</g>
<!-- 11 -->
<g id="node13" class="node">
<title>11</title>
<ellipse fill="none" stroke="black" cx="626.64" cy="-234" rx="50.89" ry="18"/>
<text text-anchor="middle" x="626.64" y="-230.3" font-family="Times,serif" font-size="14.00">LambdaOp</text>
</g>
<!-- 5&#45;&gt;11 -->
<g id="edge10" class="edge">
<title>5&#45;&gt;11</title>
<path fill="none" stroke="black" d="M814.33,-289.29C772.32,-277.14 714.72,-260.48 674.45,-248.83"/>
<polygon fill="black" stroke="black" points="675.18,-245.4 664.6,-245.98 673.23,-252.12 675.18,-245.4"/>
</g>
<!-- 6 -->
<g id="node10" class="node">
<title>6</title>
<ellipse fill="none" stroke="black" cx="558.64" cy="-162" rx="48.19" ry="18"/>
<text text-anchor="middle" x="558.64" y="-158.3" font-family="Times,serif" font-size="14.00">Categorify</text>
</g>
<!-- 6&#45;&gt;14 -->
<g id="edge12" class="edge">
<title>6&#45;&gt;14</title>
<path fill="none" stroke="black" d="M594.63,-149.75C637.25,-136.44 707.66,-114.43 749.15,-101.47"/>
<polygon fill="black" stroke="black" points="750.29,-104.78 758.8,-98.45 748.21,-98.09 750.29,-104.78"/>
</g>
<!-- 10&#45;&gt;6 -->
<g id="edge4" class="edge">
<title>10&#45;&gt;6</title>
<path fill="none" stroke="black" d="M507.43,-218.15C515.86,-209.07 526.85,-197.24 536.48,-186.87"/>
<polygon fill="black" stroke="black" points="539.28,-189 543.52,-179.29 534.15,-184.24 539.28,-189"/>
</g>
<!-- 7 -->
<g id="node12" class="node">
<title>7</title>
<ellipse fill="none" stroke="black" cx="715.64" cy="-162" rx="40.09" ry="18"/>
<text text-anchor="middle" x="715.64" y="-158.3" font-family="Times,serif" font-size="14.00">Rename</text>
</g>
<!-- 7&#45;&gt;14 -->
<g id="edge11" class="edge">
<title>7&#45;&gt;14</title>
<path fill="none" stroke="black" d="M730.85,-145.12C739.83,-135.73 751.35,-123.7 761.24,-113.36"/>
<polygon fill="black" stroke="black" points="764.03,-115.51 768.42,-105.86 758.97,-110.67 764.03,-115.51"/>
</g>
<!-- 11&#45;&gt;7 -->
<g id="edge5" class="edge">
<title>11&#45;&gt;7</title>
<path fill="none" stroke="black" d="M646.84,-217.12C659.16,-207.43 675.06,-194.92 688.47,-184.37"/>
<polygon fill="black" stroke="black" points="690.75,-187.03 696.44,-178.1 686.42,-181.53 690.75,-187.03"/>
</g>
<!-- 8&#45;&gt;14 -->
<g id="edge13" class="edge">
<title>8&#45;&gt;14</title>
<path fill="none" stroke="black" d="M834.87,-144.76C825.74,-135.37 814.12,-123.41 804.16,-113.15"/>
<polygon fill="black" stroke="black" points="806.42,-110.45 796.94,-105.72 801.4,-115.33 806.42,-110.45"/>
</g>
<!-- 12 -->
<g id="node15" class="node">
<title>12</title>
<ellipse fill="none" stroke="black" cx="532.64" cy="-306" rx="174.37" ry="18"/>
<text text-anchor="middle" x="532.64" y="-302.3" font-family="Times,serif" font-size="14.00">input cols=[language, tweet_type, tweet_id...]</text>
</g>
<!-- 12&#45;&gt;10 -->
<g id="edge9" class="edge">
<title>12&#45;&gt;10</title>
<path fill="none" stroke="black" d="M523,-287.7C518.33,-279.32 512.64,-269.1 507.52,-259.9"/>
<polygon fill="black" stroke="black" points="510.56,-258.18 502.64,-251.14 504.45,-261.58 510.56,-258.18"/>
</g>
<!-- 16 -->
<g id="node17" class="node">
<title>16</title>
<ellipse fill="none" stroke="black" cx="782.64" cy="-18" rx="247.76" ry="18"/>
<text text-anchor="middle" x="782.64" y="-14.3" font-family="Times,serif" font-size="14.00">output cols=[hashtags_count_t, domains_count_t, links_count_t...]</text>
</g>
<!-- 14&#45;&gt;16 -->
<g id="edge16" class="edge">
<title>14&#45;&gt;16</title>
<path fill="none" stroke="black" d="M782.64,-71.7C782.64,-63.98 782.64,-54.71 782.64,-46.11"/>
<polygon fill="black" stroke="black" points="786.14,-46.1 782.64,-36.1 779.14,-46.1 786.14,-46.1"/>
</g>
</g>
</svg>
