<?xml version="1.0" encoding="UTF-8" standalone="no"?>
<!DOCTYPE svg PUBLIC "-//W3C//DTD SVG 1.1//EN"
 "http://www.w3.org/Graphics/SVG/1.1/DTD/svg11.dtd">
<!-- Generated by graphviz version 2.40.1 (20161225.0304)
 -->
<!-- Title: %3 Pages: 1 -->
<svg width="325pt" height="188pt"
 viewBox="0.00 0.00 325.17 188.00" xmlns="http://www.w3.org/2000/svg" xmlns:xlink="http://www.w3.org/1999/xlink">
<g id="graph0" class="graph" transform="scale(1 1) rotate(0) translate(4 184)">
<title>%3</title>
<polygon fill="#ffffff" stroke="transparent" points="-4,4 -4,-184 321.1719,-184 321.1719,4 -4,4"/>
<!-- 0 -->
<g id="node1" class="node">
<title>0</title>
<ellipse fill="none" stroke="#000000" cx="158.5859" cy="-162" rx="154.0727" ry="18"/>
<text text-anchor="middle" x="158.5859" y="-158.3" font-family="Times,serif" font-size="14.00" fill="#000000">input cols=[Store, DayOfWeek, Year...]</text>
</g>
<!-- 1 -->
<g id="node2" class="node">
<title>1</title>
<ellipse fill="none" stroke="#000000" cx="158.5859" cy="-90" rx="48.1917" ry="18"/>
<text text-anchor="middle" x="158.5859" y="-86.3" font-family="Times,serif" font-size="14.00" fill="#000000">Categorify</text>
</g>
<!-- 0&#45;&gt;1 -->
<g id="edge1" class="edge">
<title>0&#45;&gt;1</title>
<path fill="none" stroke="#000000" d="M158.5859,-143.8314C158.5859,-136.131 158.5859,-126.9743 158.5859,-118.4166"/>
<polygon fill="#000000" stroke="#000000" points="162.086,-118.4132 158.5859,-108.4133 155.086,-118.4133 162.086,-118.4132"/>
</g>
<!-- 2 -->
<g id="node3" class="node">
<title>2</title>
<ellipse fill="none" stroke="#000000" cx="158.5859" cy="-18" rx="158.6719" ry="18"/>
<text text-anchor="middle" x="158.5859" y="-14.3" font-family="Times,serif" font-size="14.00" fill="#000000">output cols=[Store, DayOfWeek, Year...]</text>
</g>
<!-- 1&#45;&gt;2 -->
<g id="edge2" class="edge">
<title>1&#45;&gt;2</title>
<path fill="none" stroke="#000000" d="M158.5859,-71.8314C158.5859,-64.131 158.5859,-54.9743 158.5859,-46.4166"/>
<polygon fill="#000000" stroke="#000000" points="162.086,-46.4132 158.5859,-36.4133 155.086,-46.4133 162.086,-46.4132"/>
</g>
</g>
</svg>
