<?xml version="1.0" encoding="UTF-8" standalone="no"?>
<!DOCTYPE svg PUBLIC "-//W3C//DTD SVG 1.1//EN"
 "http://www.w3.org/Graphics/SVG/1.1/DTD/svg11.dtd">
<!-- Generated by graphviz version 2.40.1 (20161225.0304)
 -->
<!-- Title: %3 Pages: 1 -->
<svg width="611pt" height="260pt"
 viewBox="0.00 0.00 611.15 260.00" xmlns="http://www.w3.org/2000/svg" xmlns:xlink="http://www.w3.org/1999/xlink">
<g id="graph0" class="graph" transform="scale(1 1) rotate(0) translate(4 256)">
<title>%3</title>
<polygon fill="#ffffff" stroke="transparent" points="-4,4 -4,-256 607.1465,-256 607.1465,4 -4,4"/>
<!-- 0 -->
<g id="node1" class="node">
<title>0</title>
<ellipse fill="none" stroke="#000000" cx="301.5732" cy="-234" rx="297.0473" ry="18"/>
<text text-anchor="middle" x="301.5732" y="-230.3" font-family="Times,serif" font-size="14.00" fill="#000000">input cols=[CompetitionDistance, Max_TemperatureC, Mean_TemperatureC...]</text>
</g>
<!-- 1 -->
<g id="node2" class="node">
<title>1</title>
<ellipse fill="none" stroke="#000000" cx="301.5732" cy="-162" rx="51.9908" ry="18"/>
<text text-anchor="middle" x="301.5732" y="-158.3" font-family="Times,serif" font-size="14.00" fill="#000000">FillMissing</text>
</g>
<!-- 0&#45;&gt;1 -->
<g id="edge1" class="edge">
<title>0&#45;&gt;1</title>
<path fill="none" stroke="#000000" d="M301.5732,-215.8314C301.5732,-208.131 301.5732,-198.9743 301.5732,-190.4166"/>
<polygon fill="#000000" stroke="#000000" points="305.0733,-190.4132 301.5732,-180.4133 298.0733,-190.4133 305.0733,-190.4132"/>
</g>
<!-- 2 -->
<g id="node3" class="node">
<title>2</title>
<ellipse fill="none" stroke="#000000" cx="301.5732" cy="-90" rx="48.1917" ry="18"/>
<text text-anchor="middle" x="301.5732" y="-86.3" font-family="Times,serif" font-size="14.00" fill="#000000">Normalize</text>
</g>
<!-- 1&#45;&gt;2 -->
<g id="edge2" class="edge">
<title>1&#45;&gt;2</title>
<path fill="none" stroke="#000000" d="M301.5732,-143.8314C301.5732,-136.131 301.5732,-126.9743 301.5732,-118.4166"/>
<polygon fill="#000000" stroke="#000000" points="305.0733,-118.4132 301.5732,-108.4133 298.0733,-118.4133 305.0733,-118.4132"/>
</g>
<!-- 3 -->
<g id="node4" class="node">
<title>3</title>
<ellipse fill="none" stroke="#000000" cx="301.5732" cy="-18" rx="301.6465" ry="18"/>
<text text-anchor="middle" x="301.5732" y="-14.3" font-family="Times,serif" font-size="14.00" fill="#000000">output cols=[CompetitionDistance, Max_TemperatureC, Mean_TemperatureC...]</text>
</g>
<!-- 2&#45;&gt;3 -->
<g id="edge3" class="edge">
<title>2&#45;&gt;3</title>
<path fill="none" stroke="#000000" d="M301.5732,-71.8314C301.5732,-64.131 301.5732,-54.9743 301.5732,-46.4166"/>
<polygon fill="#000000" stroke="#000000" points="305.0733,-46.4132 301.5732,-36.4133 298.0733,-46.4133 305.0733,-46.4132"/>
</g>
</g>
</svg>
