<?xml version="1.0" encoding="UTF-8" standalone="no"?>
<!DOCTYPE svg PUBLIC "-//W3C//DTD SVG 1.1//EN"
 "http://www.w3.org/Graphics/SVG/1.1/DTD/svg11.dtd">
<!-- Generated by graphviz version 2.43.0 (0)
 -->
<!-- Title: %3 Pages: 1 -->
<svg width="440pt" height="332pt"
 viewBox="0.00 0.00 439.92 332.00" xmlns="http://www.w3.org/2000/svg" xmlns:xlink="http://www.w3.org/1999/xlink">
<g id="graph0" class="graph" transform="scale(1 1) rotate(0) translate(4 328)">
<title>%3</title>
<polygon fill="white" stroke="transparent" points="-4,4 -4,-328 435.92,-328 435.92,4 -4,4"/>
<!-- 0 -->
<g id="node1" class="node">
<title>0</title>
<ellipse fill="none" stroke="black" cx="143.64" cy="-306" rx="143.77" ry="18"/>
<text text-anchor="middle" x="143.64" y="-302.3" font-family="Times,serif" font-size="14.00">input cols=[userId, movieId]</text>
</g>
<!-- 2 -->
<g id="node4" class="node">
<title>2</title>
<ellipse fill="none" stroke="black" cx="143.64" cy="-234" rx="68.49" ry="18"/>
<text text-anchor="middle" x="143.64" y="-230.3" font-family="Times,serif" font-size="14.00">JoinExternal</text>
</g>
<!-- 0&#45;&gt;2 -->
<g id="edge2" class="edge">
<title>0&#45;&gt;2</title>
<path fill="none" stroke="black" d="M143.64,-287.7C143.64,-279.98 143.64,-270.71 143.64,-262.11"/>
<polygon fill="black" stroke="black" points="147.14,-262.1 143.64,-252.1 140.14,-262.1 147.14,-262.1"/>
</g>
<!-- 1 -->
<g id="node2" class="node">
<title>1</title>
<ellipse fill="none" stroke="black" cx="316.64" cy="-162" rx="61.19" ry="18"/>
<text text-anchor="middle" x="316.64" y="-158.3" font-family="Times,serif" font-size="14.00">LambdaOp</text>
</g>
<!-- 4 -->
<g id="node6" class="node">
<title>4</title>
<ellipse fill="none" stroke="black" cx="235.64" cy="-90" rx="27" ry="18"/>
<text text-anchor="middle" x="235.64" y="-86.3" font-family="Times,serif" font-size="14.00">+</text>
</g>
<!-- 1&#45;&gt;4 -->
<g id="edge5" class="edge">
<title>1&#45;&gt;4</title>
<path fill="none" stroke="black" d="M297.85,-144.76C286.35,-134.83 271.53,-122.02 259.24,-111.4"/>
<polygon fill="black" stroke="black" points="261.45,-108.68 251.59,-104.79 256.87,-113.97 261.45,-108.68"/>
</g>
<!-- 5 -->
<g id="node3" class="node">
<title>5</title>
<ellipse fill="none" stroke="black" cx="328.64" cy="-234" rx="98.58" ry="18"/>
<text text-anchor="middle" x="328.64" y="-230.3" font-family="Times,serif" font-size="14.00">input cols=[rating]</text>
</g>
<!-- 5&#45;&gt;1 -->
<g id="edge1" class="edge">
<title>5&#45;&gt;1</title>
<path fill="none" stroke="black" d="M325.67,-215.7C324.35,-207.98 322.76,-198.71 321.29,-190.11"/>
<polygon fill="black" stroke="black" points="324.71,-189.37 319.57,-180.1 317.81,-190.55 324.71,-189.37"/>
</g>
<!-- 3 -->
<g id="node5" class="node">
<title>3</title>
<ellipse fill="none" stroke="black" cx="166.64" cy="-162" rx="59.59" ry="18"/>
<text text-anchor="middle" x="166.64" y="-158.3" font-family="Times,serif" font-size="14.00">Categorify</text>
</g>
<!-- 2&#45;&gt;3 -->
<g id="edge3" class="edge">
<title>2&#45;&gt;3</title>
<path fill="none" stroke="black" d="M149.2,-216.05C151.79,-208.18 154.93,-198.62 157.83,-189.79"/>
<polygon fill="black" stroke="black" points="161.16,-190.87 160.96,-180.28 154.51,-188.68 161.16,-190.87"/>
</g>
<!-- 3&#45;&gt;4 -->
<g id="edge4" class="edge">
<title>3&#45;&gt;4</title>
<path fill="none" stroke="black" d="M182.99,-144.41C192.26,-135 203.98,-123.12 214.01,-112.94"/>
<polygon fill="black" stroke="black" points="216.75,-115.15 221.27,-105.57 211.76,-110.24 216.75,-115.15"/>
</g>
<!-- 6 -->
<g id="node7" class="node">
<title>6</title>
<ellipse fill="none" stroke="black" cx="235.64" cy="-18" rx="196.07" ry="18"/>
<text text-anchor="middle" x="235.64" y="-14.3" font-family="Times,serif" font-size="14.00">output cols=[movieId, userId, genres...]</text>
</g>
<!-- 4&#45;&gt;6 -->
<g id="edge6" class="edge">
<title>4&#45;&gt;6</title>
<path fill="none" stroke="black" d="M235.64,-71.7C235.64,-63.98 235.64,-54.71 235.64,-46.11"/>
<polygon fill="black" stroke="black" points="239.14,-46.1 235.64,-36.1 232.14,-46.1 239.14,-46.1"/>
</g>
</g>
</svg>
