<?xml version="1.0" encoding="UTF-8" standalone="no"?>
<!DOCTYPE svg PUBLIC "-//W3C//DTD SVG 1.1//EN"
 "http://www.w3.org/Graphics/SVG/1.1/DTD/svg11.dtd">
<!-- Generated by graphviz version 2.43.0 (0)
 -->
<!-- Title: %3 Pages: 1 -->
<svg width="574pt" height="476pt"
 viewBox="0.00 0.00 574.28 476.00" xmlns="http://www.w3.org/2000/svg" xmlns:xlink="http://www.w3.org/1999/xlink">
<g id="graph0" class="graph" transform="scale(1 1) rotate(0) translate(4 472)">
<title>%3</title>
<polygon fill="white" stroke="transparent" points="-4,4 -4,-472 570.28,-472 570.28,4 -4,4"/>
<!-- 0 -->
<g id="node1" class="node">
<title>0</title>
<ellipse fill="none" stroke="black" cx="304.34" cy="-90" rx="27" ry="18"/>
<text text-anchor="middle" x="304.34" y="-86.3" font-family="Times,serif" font-size="14.00">+</text>
</g>
<!-- 9 -->
<g id="node10" class="node">
<title>9</title>
<ellipse fill="none" stroke="black" cx="304.34" cy="-18" rx="135.68" ry="18"/>
<text text-anchor="middle" x="304.34" y="-14.3" font-family="Times,serif" font-size="14.00">output cols=[C1, C2, C3...]</text>
</g>
<!-- 0&#45;&gt;9 -->
<g id="edge9" class="edge">
<title>0&#45;&gt;9</title>
<path fill="none" stroke="black" d="M304.34,-71.7C304.34,-63.98 304.34,-54.71 304.34,-46.11"/>
<polygon fill="black" stroke="black" points="307.84,-46.1 304.34,-36.1 300.84,-46.1 307.84,-46.1"/>
</g>
<!-- 7 -->
<g id="node2" class="node">
<title>7</title>
<ellipse fill="none" stroke="black" cx="155.34" cy="-162" rx="59.59" ry="18"/>
<text text-anchor="middle" x="155.34" y="-158.3" font-family="Times,serif" font-size="14.00">Categorify</text>
</g>
<!-- 7&#45;&gt;0 -->
<g id="edge1" class="edge">
<title>7&#45;&gt;0</title>
<path fill="none" stroke="black" d="M186.21,-146.5C211.76,-134.49 247.87,-117.53 273.43,-105.52"/>
<polygon fill="black" stroke="black" points="275.1,-108.6 282.67,-101.18 272.13,-102.27 275.1,-108.6"/>
</g>
<!-- 5 -->
<g id="node3" class="node">
<title>5</title>
<ellipse fill="none" stroke="black" cx="304.34" cy="-162" rx="58.49" ry="18"/>
<text text-anchor="middle" x="304.34" y="-158.3" font-family="Times,serif" font-size="14.00">Normalize</text>
</g>
<!-- 5&#45;&gt;0 -->
<g id="edge2" class="edge">
<title>5&#45;&gt;0</title>
<path fill="none" stroke="black" d="M304.34,-143.7C304.34,-135.98 304.34,-126.71 304.34,-118.11"/>
<polygon fill="black" stroke="black" points="307.84,-118.1 304.34,-108.1 300.84,-118.1 307.84,-118.1"/>
</g>
<!-- 4 -->
<g id="node4" class="node">
<title>4</title>
<ellipse fill="none" stroke="black" cx="473.34" cy="-162" rx="92.88" ry="18"/>
<text text-anchor="middle" x="473.34" y="-158.3" font-family="Times,serif" font-size="14.00">input cols=[label]</text>
</g>
<!-- 4&#45;&gt;0 -->
<g id="edge3" class="edge">
<title>4&#45;&gt;0</title>
<path fill="none" stroke="black" d="M435.83,-145.46C405.91,-133.07 364.46,-115.9 336.14,-104.17"/>
<polygon fill="black" stroke="black" points="337.29,-100.86 326.71,-100.27 334.61,-107.33 337.29,-100.86"/>
</g>
<!-- 1 -->
<g id="node5" class="node">
<title>1</title>
<ellipse fill="none" stroke="black" cx="129.34" cy="-234" rx="129.18" ry="18"/>
<text text-anchor="middle" x="129.34" y="-230.3" font-family="Times,serif" font-size="14.00">input cols=[C1, C2, C3...]</text>
</g>
<!-- 1&#45;&gt;7 -->
<g id="edge7" class="edge">
<title>1&#45;&gt;7</title>
<path fill="none" stroke="black" d="M135.77,-215.7C138.69,-207.81 142.23,-198.3 145.48,-189.55"/>
<polygon fill="black" stroke="black" points="148.78,-190.7 148.99,-180.1 142.22,-188.26 148.78,-190.7"/>
</g>
<!-- 2 -->
<g id="node6" class="node">
<title>2</title>
<ellipse fill="none" stroke="black" cx="317.34" cy="-234" rx="40.89" ry="18"/>
<text text-anchor="middle" x="317.34" y="-230.3" font-family="Times,serif" font-size="14.00">LogOp</text>
</g>
<!-- 2&#45;&gt;5 -->
<g id="edge6" class="edge">
<title>2&#45;&gt;5</title>
<path fill="none" stroke="black" d="M314.13,-215.7C312.69,-207.98 310.97,-198.71 309.37,-190.11"/>
<polygon fill="black" stroke="black" points="312.78,-189.3 307.52,-180.1 305.9,-190.58 312.78,-189.3"/>
</g>
<!-- 8 -->
<g id="node7" class="node">
<title>8</title>
<ellipse fill="none" stroke="black" cx="317.34" cy="-306" rx="29.5" ry="18"/>
<text text-anchor="middle" x="317.34" y="-302.3" font-family="Times,serif" font-size="14.00">Clip</text>
</g>
<!-- 8&#45;&gt;2 -->
<g id="edge4" class="edge">
<title>8&#45;&gt;2</title>
<path fill="none" stroke="black" d="M317.34,-287.7C317.34,-279.98 317.34,-270.71 317.34,-262.11"/>
<polygon fill="black" stroke="black" points="320.84,-262.1 317.34,-252.1 313.84,-262.1 320.84,-262.1"/>
</g>
<!-- 3 -->
<g id="node8" class="node">
<title>3</title>
<ellipse fill="none" stroke="black" cx="317.34" cy="-378" rx="62.29" ry="18"/>
<text text-anchor="middle" x="317.34" y="-374.3" font-family="Times,serif" font-size="14.00">FillMissing</text>
</g>
<!-- 3&#45;&gt;8 -->
<g id="edge8" class="edge">
<title>3&#45;&gt;8</title>
<path fill="none" stroke="black" d="M317.34,-359.7C317.34,-351.98 317.34,-342.71 317.34,-334.11"/>
<polygon fill="black" stroke="black" points="320.84,-334.1 317.34,-324.1 313.84,-334.1 320.84,-334.1"/>
</g>
<!-- 6 -->
<g id="node9" class="node">
<title>6</title>
<ellipse fill="none" stroke="black" cx="317.34" cy="-450" rx="118.88" ry="18"/>
<text text-anchor="middle" x="317.34" y="-446.3" font-family="Times,serif" font-size="14.00">input cols=[I1, I2, I3...]</text>
</g>
<!-- 6&#45;&gt;3 -->
<g id="edge5" class="edge">
<title>6&#45;&gt;3</title>
<path fill="none" stroke="black" d="M317.34,-431.7C317.34,-423.98 317.34,-414.71 317.34,-406.11"/>
<polygon fill="black" stroke="black" points="320.84,-406.1 317.34,-396.1 313.84,-406.1 320.84,-406.1"/>
</g>
</g>
</svg>
