<?xml version="1.0" encoding="UTF-8" standalone="no"?>
<!DOCTYPE svg PUBLIC "-//W3C//DTD SVG 1.1//EN"
 "http://www.w3.org/Graphics/SVG/1.1/DTD/svg11.dtd">
<!-- Generated by graphviz version 2.42.3 (20191010.1750)
 -->
<!-- Title: %3 Pages: 1 -->
<svg width="167pt" height="188pt"
 viewBox="0.00 0.00 166.59 188.00" xmlns="http://www.w3.org/2000/svg" xmlns:xlink="http://www.w3.org/1999/xlink">
<g id="graph0" class="graph" transform="scale(1 1) rotate(0) translate(4 184)">
<title>%3</title>
<polygon fill="white" stroke="transparent" points="-4,4 -4,-184 162.59,-184 162.59,4 -4,4"/>
<!-- 0 -->
<g id="node1" class="node">
<title>0</title>
<ellipse fill="none" stroke="black" cx="79.29" cy="-90" rx="36" ry="18"/>
<text text-anchor="middle" x="79.29" y="-86.3" font-family="Times,serif" font-size="14.00">LogOp</text>
</g>
<!-- 2 -->
<g id="node3" class="node">
<title>2</title>
<ellipse fill="none" stroke="black" cx="79.29" cy="-18" rx="79.09" ry="18"/>
<text text-anchor="middle" x="79.29" y="-14.3" font-family="Times,serif" font-size="14.00">output cols=[Sales]</text>
</g>
<!-- 0&#45;&gt;2 -->
<g id="edge2" class="edge">
<title>0&#45;&gt;2</title>
<path fill="none" stroke="black" d="M79.29,-71.7C79.29,-63.98 79.29,-54.71 79.29,-46.11"/>
<polygon fill="black" stroke="black" points="82.79,-46.1 79.29,-36.1 75.79,-46.1 82.79,-46.1"/>
</g>
<!-- 1 -->
<g id="node2" class="node">
<title>1</title>
<ellipse fill="none" stroke="black" cx="79.29" cy="-162" rx="75.29" ry="18"/>
<text text-anchor="middle" x="79.29" y="-158.3" font-family="Times,serif" font-size="14.00">input cols=[Sales]</text>
</g>
<!-- 1&#45;&gt;0 -->
<g id="edge1" class="edge">
<title>1&#45;&gt;0</title>
<path fill="none" stroke="black" d="M79.29,-143.7C79.29,-135.98 79.29,-126.71 79.29,-118.11"/>
<polygon fill="black" stroke="black" points="82.79,-118.1 79.29,-108.1 75.79,-118.1 82.79,-118.1"/>
</g>
</g>
</svg>
