<?xml version="1.0" encoding="UTF-8" standalone="no"?>
<!DOCTYPE svg PUBLIC "-//W3C//DTD SVG 1.1//EN"
 "http://www.w3.org/Graphics/SVG/1.1/DTD/svg11.dtd">
<!-- Generated by graphviz version 2.43.0 (0)
 -->
<!-- Title: %3 Pages: 1 -->
<svg width="382pt" height="188pt"
 viewBox="0.00 0.00 382.37 188.00" xmlns="http://www.w3.org/2000/svg" xmlns:xlink="http://www.w3.org/1999/xlink">
<g id="graph0" class="graph" transform="scale(1 1) rotate(0) translate(4 184)">
<title>%3</title>
<polygon fill="white" stroke="transparent" points="-4,4 -4,-184 378.37,-184 378.37,4 -4,4"/>
<!-- 0 -->
<g id="node1" class="node">
<title>0</title>
<ellipse fill="none" stroke="black" cx="187.18" cy="-162" rx="143.77" ry="18"/>
<text text-anchor="middle" x="187.18" y="-158.3" font-family="Times,serif" font-size="14.00">input cols=[userId, movieId]</text>
</g>
<!-- 1 -->
<g id="node2" class="node">
<title>1</title>
<ellipse fill="none" stroke="black" cx="187.18" cy="-90" rx="68.49" ry="18"/>
<text text-anchor="middle" x="187.18" y="-86.3" font-family="Times,serif" font-size="14.00">JoinExternal</text>
</g>
<!-- 0&#45;&gt;1 -->
<g id="edge1" class="edge">
<title>0&#45;&gt;1</title>
<path fill="none" stroke="black" d="M187.18,-143.7C187.18,-135.98 187.18,-126.71 187.18,-118.11"/>
<polygon fill="black" stroke="black" points="190.68,-118.1 187.18,-108.1 183.68,-118.1 190.68,-118.1"/>
</g>
<!-- 2 -->
<g id="node3" class="node">
<title>2</title>
<ellipse fill="none" stroke="black" cx="187.18" cy="-18" rx="187.37" ry="18"/>
<text text-anchor="middle" x="187.18" y="-14.3" font-family="Times,serif" font-size="14.00">output cols=[movieId, userId, genres]</text>
</g>
<!-- 1&#45;&gt;2 -->
<g id="edge2" class="edge">
<title>1&#45;&gt;2</title>
<path fill="none" stroke="black" d="M187.18,-71.7C187.18,-63.98 187.18,-54.71 187.18,-46.11"/>
<polygon fill="black" stroke="black" points="190.68,-46.1 187.18,-36.1 183.68,-46.1 190.68,-46.1"/>
</g>
</g>
</svg>
