<?xml version="1.0" encoding="UTF-8" standalone="no"?>
<!DOCTYPE svg PUBLIC "-//W3C//DTD SVG 1.1//EN"
 "http://www.w3.org/Graphics/SVG/1.1/DTD/svg11.dtd">
<!-- Generated by graphviz version 2.42.3 (20191010.1750)
 -->
<!-- Title: %3 Pages: 1 -->
<svg width="325pt" height="188pt"
 viewBox="0.00 0.00 325.17 188.00" xmlns="http://www.w3.org/2000/svg" xmlns:xlink="http://www.w3.org/1999/xlink">
<g id="graph0" class="graph" transform="scale(1 1) rotate(0) translate(4 184)">
<title>%3</title>
<polygon fill="white" stroke="transparent" points="-4,4 -4,-184 321.17,-184 321.17,4 -4,4"/>
<!-- 0 -->
<g id="node1" class="node">
<title>0</title>
<ellipse fill="none" stroke="black" cx="158.59" cy="-90" rx="48.19" ry="18"/>
<text text-anchor="middle" x="158.59" y="-86.3" font-family="Times,serif" font-size="14.00">Categorify</text>
</g>
<!-- 2 -->
<g id="node3" class="node">
<title>2</title>
<ellipse fill="none" stroke="black" cx="158.59" cy="-18" rx="158.67" ry="18"/>
<text text-anchor="middle" x="158.59" y="-14.3" font-family="Times,serif" font-size="14.00">output cols=[Store, DayOfWeek, Year...]</text>
</g>
<!-- 0&#45;&gt;2 -->
<g id="edge2" class="edge">
<title>0&#45;&gt;2</title>
<path fill="none" stroke="black" d="M158.59,-71.7C158.59,-63.98 158.59,-54.71 158.59,-46.11"/>
<polygon fill="black" stroke="black" points="162.09,-46.1 158.59,-36.1 155.09,-46.1 162.09,-46.1"/>
</g>
<!-- 1 -->
<g id="node2" class="node">
<title>1</title>
<ellipse fill="none" stroke="black" cx="158.59" cy="-162" rx="154.07" ry="18"/>
<text text-anchor="middle" x="158.59" y="-158.3" font-family="Times,serif" font-size="14.00">input cols=[Store, DayOfWeek, Year...]</text>
</g>
<!-- 1&#45;&gt;0 -->
<g id="edge1" class="edge">
<title>1&#45;&gt;0</title>
<path fill="none" stroke="black" d="M158.59,-143.7C158.59,-135.98 158.59,-126.71 158.59,-118.11"/>
<polygon fill="black" stroke="black" points="162.09,-118.1 158.59,-108.1 155.09,-118.1 162.09,-118.1"/>
</g>
</g>
</svg>
