<?xml version="1.0" encoding="UTF-8" standalone="no"?>
<!DOCTYPE svg PUBLIC "-//W3C//DTD SVG 1.1//EN"
 "http://www.w3.org/Graphics/SVG/1.1/DTD/svg11.dtd">
<!-- Generated by graphviz version 2.42.3 (20191010.1750)
 -->
<!-- Title: %3 Pages: 1 -->
<svg width="1849pt" height="404pt"
 viewBox="0.00 0.00 1848.81 404.00" xmlns="http://www.w3.org/2000/svg" xmlns:xlink="http://www.w3.org/1999/xlink">
<g id="graph0" class="graph" transform="scale(1 1) rotate(0) translate(4 400)">
<title>%3</title>
<polygon fill="white" stroke="transparent" points="-4,4 -4,-400 1844.81,-400 1844.81,4 -4,4"/>
<!-- 0 -->
<g id="node1" class="node">
<title>0</title>
<ellipse fill="none" stroke="black" cx="1659.48" cy="-234" rx="50.89" ry="18"/>
<text text-anchor="middle" x="1659.48" y="-230.3" font-family="Times,serif" font-size="14.00">LambdaOp</text>
</g>
<!-- 1 -->
<g id="node3" class="node">
<title>1</title>
<ellipse fill="none" stroke="black" cx="1425.48" cy="-162" rx="67.69" ry="18"/>
<text text-anchor="middle" x="1425.48" y="-158.3" font-family="Times,serif" font-size="14.00">TargetEncoding</text>
</g>
<!-- 0&#45;&gt;1 -->
<g id="edge3" class="edge">
<title>0&#45;&gt;1</title>
<path fill="none" stroke="black" d="M1621.88,-221.75C1582.97,-210.11 1521.86,-191.83 1478.15,-178.76"/>
<polygon fill="black" stroke="black" points="1479.13,-175.4 1468.54,-175.88 1477.12,-182.1 1479.13,-175.4"/>
</g>
<!-- 10 -->
<g id="node14" class="node">
<title>10</title>
<ellipse fill="none" stroke="black" cx="1072.48" cy="-90" rx="27" ry="18"/>
<text text-anchor="middle" x="1072.48" y="-86.3" font-family="Times,serif" font-size="14.00">+</text>
</g>
<!-- 0&#45;&gt;10 -->
<g id="edge13" class="edge">
<title>0&#45;&gt;10</title>
<path fill="none" stroke="black" d="M1638.41,-217.43C1609.41,-196.88 1554.84,-161.3 1502.48,-144 1362.82,-97.85 1185.62,-91.28 1109.72,-90.75"/>
<polygon fill="black" stroke="black" points="1109.71,-87.25 1099.7,-90.71 1109.69,-94.25 1109.71,-87.25"/>
</g>
<!-- 3 -->
<g id="node2" class="node">
<title>3</title>
<ellipse fill="none" stroke="black" cx="1659.48" cy="-306" rx="181.17" ry="18"/>
<text text-anchor="middle" x="1659.48" y="-302.3" font-family="Times,serif" font-size="14.00">input cols=[reply, retweet, retweet_comment...]</text>
</g>
<!-- 3&#45;&gt;0 -->
<g id="edge1" class="edge">
<title>3&#45;&gt;0</title>
<path fill="none" stroke="black" d="M1659.48,-287.7C1659.48,-279.98 1659.48,-270.71 1659.48,-262.11"/>
<polygon fill="black" stroke="black" points="1662.98,-262.1 1659.48,-252.1 1655.98,-262.1 1662.98,-262.1"/>
</g>
<!-- 1&#45;&gt;10 -->
<g id="edge14" class="edge">
<title>1&#45;&gt;10</title>
<path fill="none" stroke="black" d="M1373.01,-150.6C1300.39,-136.19 1171.12,-110.56 1108.48,-98.14"/>
<polygon fill="black" stroke="black" points="1108.79,-94.63 1098.3,-96.12 1107.43,-101.5 1108.79,-94.63"/>
</g>
<!-- 6 -->
<g id="node4" class="node">
<title>6</title>
<ellipse fill="none" stroke="black" cx="1425.48" cy="-234" rx="165.97" ry="18"/>
<text text-anchor="middle" x="1425.48" y="-230.3" font-family="Times,serif" font-size="14.00">input cols=[media, tweet_type, language...]</text>
</g>
<!-- 6&#45;&gt;1 -->
<g id="edge2" class="edge">
<title>6&#45;&gt;1</title>
<path fill="none" stroke="black" d="M1425.48,-215.7C1425.48,-207.98 1425.48,-198.71 1425.48,-190.11"/>
<polygon fill="black" stroke="black" points="1428.98,-190.1 1425.48,-180.1 1421.98,-190.1 1428.98,-190.1"/>
</g>
<!-- 2 -->
<g id="node5" class="node">
<title>2</title>
<ellipse fill="none" stroke="black" cx="953.48" cy="-234" rx="50.89" ry="18"/>
<text text-anchor="middle" x="953.48" y="-230.3" font-family="Times,serif" font-size="14.00">LambdaOp</text>
</g>
<!-- 17 -->
<g id="node17" class="node">
<title>17</title>
<ellipse fill="none" stroke="black" cx="963.48" cy="-162" rx="40.09" ry="18"/>
<text text-anchor="middle" x="963.48" y="-158.3" font-family="Times,serif" font-size="14.00">Rename</text>
</g>
<!-- 2&#45;&gt;17 -->
<g id="edge21" class="edge">
<title>2&#45;&gt;17</title>
<path fill="none" stroke="black" d="M955.95,-215.7C957.05,-207.98 958.38,-198.71 959.61,-190.11"/>
<polygon fill="black" stroke="black" points="963.09,-190.5 961.04,-180.1 956.16,-189.51 963.09,-190.5"/>
</g>
<!-- 11 -->
<g id="node6" class="node">
<title>11</title>
<ellipse fill="none" stroke="black" cx="1072.48" cy="-306" rx="50.89" ry="18"/>
<text text-anchor="middle" x="1072.48" y="-302.3" font-family="Times,serif" font-size="14.00">LambdaOp</text>
</g>
<!-- 11&#45;&gt;2 -->
<g id="edge4" class="edge">
<title>11&#45;&gt;2</title>
<path fill="none" stroke="black" d="M1047.53,-290.33C1030.12,-280.08 1006.66,-266.28 987.53,-255.03"/>
<polygon fill="black" stroke="black" points="989.2,-251.95 978.8,-249.9 985.65,-257.98 989.2,-251.95"/>
</g>
<!-- 9 -->
<g id="node13" class="node">
<title>9</title>
<ellipse fill="none" stroke="black" cx="1072.48" cy="-234" rx="50.89" ry="18"/>
<text text-anchor="middle" x="1072.48" y="-230.3" font-family="Times,serif" font-size="14.00">LambdaOp</text>
</g>
<!-- 11&#45;&gt;9 -->
<g id="edge7" class="edge">
<title>11&#45;&gt;9</title>
<path fill="none" stroke="black" d="M1072.48,-287.7C1072.48,-279.98 1072.48,-270.71 1072.48,-262.11"/>
<polygon fill="black" stroke="black" points="1075.98,-262.1 1072.48,-252.1 1068.98,-262.1 1075.98,-262.1"/>
</g>
<!-- 14 -->
<g id="node20" class="node">
<title>14</title>
<ellipse fill="none" stroke="black" cx="1191.48" cy="-234" rx="50.89" ry="18"/>
<text text-anchor="middle" x="1191.48" y="-230.3" font-family="Times,serif" font-size="14.00">LambdaOp</text>
</g>
<!-- 11&#45;&gt;14 -->
<g id="edge18" class="edge">
<title>11&#45;&gt;14</title>
<path fill="none" stroke="black" d="M1097.43,-290.33C1114.84,-280.08 1138.3,-266.28 1157.43,-255.03"/>
<polygon fill="black" stroke="black" points="1159.31,-257.98 1166.16,-249.9 1155.76,-251.95 1159.31,-257.98"/>
</g>
<!-- 4 -->
<g id="node7" class="node">
<title>4</title>
<ellipse fill="none" stroke="black" cx="552.48" cy="-234" rx="165.97" ry="18"/>
<text text-anchor="middle" x="552.48" y="-230.3" font-family="Times,serif" font-size="14.00">input cols=[media, tweet_type, language...]</text>
</g>
<!-- 12 -->
<g id="node15" class="node">
<title>12</title>
<ellipse fill="none" stroke="black" cx="810.48" cy="-162" rx="56.59" ry="18"/>
<text text-anchor="middle" x="810.48" y="-158.3" font-family="Times,serif" font-size="14.00">JoinGroupby</text>
</g>
<!-- 4&#45;&gt;12 -->
<g id="edge16" class="edge">
<title>4&#45;&gt;12</title>
<path fill="none" stroke="black" d="M611.02,-217.12C655.48,-205.05 716.04,-188.62 758.73,-177.04"/>
<polygon fill="black" stroke="black" points="759.91,-180.35 768.64,-174.35 758.07,-173.59 759.91,-180.35"/>
</g>
<!-- 5 -->
<g id="node8" class="node">
<title>5</title>
<ellipse fill="none" stroke="black" cx="495.48" cy="-162" rx="51.99" ry="18"/>
<text text-anchor="middle" x="495.48" y="-158.3" font-family="Times,serif" font-size="14.00">FillMissing</text>
</g>
<!-- 5&#45;&gt;10 -->
<g id="edge12" class="edge">
<title>5&#45;&gt;10</title>
<path fill="none" stroke="black" d="M543.68,-155.15C656.56,-141.46 936.03,-107.55 1036.11,-95.41"/>
<polygon fill="black" stroke="black" points="1036.54,-98.89 1046.04,-94.21 1035.69,-91.94 1036.54,-98.89"/>
</g>
<!-- 15 -->
<g id="node9" class="node">
<title>15</title>
<ellipse fill="none" stroke="black" cx="307.48" cy="-234" rx="61.99" ry="18"/>
<text text-anchor="middle" x="307.48" y="-230.3" font-family="Times,serif" font-size="14.00">DifferenceLag</text>
</g>
<!-- 15&#45;&gt;5 -->
<g id="edge5" class="edge">
<title>15&#45;&gt;5</title>
<path fill="none" stroke="black" d="M344.17,-219.34C374.97,-207.87 419.03,-191.46 451.67,-179.31"/>
<polygon fill="black" stroke="black" points="453.26,-182.46 461.41,-175.69 450.82,-175.9 453.26,-182.46"/>
</g>
<!-- 7 -->
<g id="node10" class="node">
<title>7</title>
<ellipse fill="none" stroke="black" cx="810.48" cy="-234" rx="74.99" ry="18"/>
<text text-anchor="middle" x="810.48" y="-230.3" font-family="Times,serif" font-size="14.00">input cols=[reply]</text>
</g>
<!-- 7&#45;&gt;12 -->
<g id="edge17" class="edge">
<title>7&#45;&gt;12</title>
<path fill="none" stroke="black" d="M810.48,-215.7C810.48,-207.98 810.48,-198.71 810.48,-190.11"/>
<polygon fill="black" stroke="black" points="813.98,-190.1 810.48,-180.1 806.98,-190.1 813.98,-190.1"/>
</g>
<!-- 8 -->
<g id="node11" class="node">
<title>8</title>
<ellipse fill="none" stroke="black" cx="227.48" cy="-306" rx="50.89" ry="18"/>
<text text-anchor="middle" x="227.48" y="-302.3" font-family="Times,serif" font-size="14.00">LambdaOp</text>
</g>
<!-- 8&#45;&gt;15 -->
<g id="edge19" class="edge">
<title>8&#45;&gt;15</title>
<path fill="none" stroke="black" d="M245.63,-289.12C256.12,-279.94 269.5,-268.23 281.13,-258.06"/>
<polygon fill="black" stroke="black" points="283.62,-260.53 288.84,-251.31 279.01,-255.26 283.62,-260.53"/>
</g>
<!-- 13 -->
<g id="node12" class="node">
<title>13</title>
<ellipse fill="none" stroke="black" cx="227.48" cy="-378" rx="227.46" ry="18"/>
<text text-anchor="middle" x="227.48" y="-374.3" font-family="Times,serif" font-size="14.00">input cols=[b_follower_count, b_following_count, language]</text>
</g>
<!-- 13&#45;&gt;8 -->
<g id="edge6" class="edge">
<title>13&#45;&gt;8</title>
<path fill="none" stroke="black" d="M227.48,-359.7C227.48,-351.98 227.48,-342.71 227.48,-334.11"/>
<polygon fill="black" stroke="black" points="230.98,-334.1 227.48,-324.1 223.98,-334.1 230.98,-334.1"/>
</g>
<!-- 20 -->
<g id="node16" class="node">
<title>20</title>
<ellipse fill="none" stroke="black" cx="1072.48" cy="-162" rx="40.09" ry="18"/>
<text text-anchor="middle" x="1072.48" y="-158.3" font-family="Times,serif" font-size="14.00">Rename</text>
</g>
<!-- 9&#45;&gt;20 -->
<g id="edge23" class="edge">
<title>9&#45;&gt;20</title>
<path fill="none" stroke="black" d="M1072.48,-215.7C1072.48,-207.98 1072.48,-198.71 1072.48,-190.11"/>
<polygon fill="black" stroke="black" points="1075.98,-190.1 1072.48,-180.1 1068.98,-190.1 1075.98,-190.1"/>
</g>
<!-- 21 -->
<g id="node22" class="node">
<title>21</title>
<ellipse fill="none" stroke="black" cx="1072.48" cy="-18" rx="241.56" ry="18"/>
<text text-anchor="middle" x="1072.48" y="-14.3" font-family="Times,serif" font-size="14.00">output cols=[media_count, tweet_type_count, language_count...]</text>
</g>
<!-- 10&#45;&gt;21 -->
<g id="edge24" class="edge">
<title>10&#45;&gt;21</title>
<path fill="none" stroke="black" d="M1072.48,-71.7C1072.48,-63.98 1072.48,-54.71 1072.48,-46.11"/>
<polygon fill="black" stroke="black" points="1075.98,-46.1 1072.48,-36.1 1068.98,-46.1 1075.98,-46.1"/>
</g>
<!-- 12&#45;&gt;10 -->
<g id="edge8" class="edge">
<title>12&#45;&gt;10</title>
<path fill="none" stroke="black" d="M852.28,-149.83C903.7,-136.09 990.03,-113.03 1037.89,-100.24"/>
<polygon fill="black" stroke="black" points="1039.02,-103.56 1047.78,-97.6 1037.21,-96.8 1039.02,-103.56"/>
</g>
<!-- 20&#45;&gt;10 -->
<g id="edge9" class="edge">
<title>20&#45;&gt;10</title>
<path fill="none" stroke="black" d="M1072.48,-143.7C1072.48,-135.98 1072.48,-126.71 1072.48,-118.11"/>
<polygon fill="black" stroke="black" points="1075.98,-118.1 1072.48,-108.1 1068.98,-118.1 1075.98,-118.1"/>
</g>
<!-- 17&#45;&gt;10 -->
<g id="edge10" class="edge">
<title>17&#45;&gt;10</title>
<path fill="none" stroke="black" d="M985.54,-146.83C1002.75,-135.78 1026.75,-120.36 1045.18,-108.53"/>
<polygon fill="black" stroke="black" points="1047.2,-111.39 1053.72,-103.05 1043.42,-105.5 1047.2,-111.39"/>
</g>
<!-- 18 -->
<g id="node18" class="node">
<title>18</title>
<ellipse fill="none" stroke="black" cx="1181.48" cy="-162" rx="40.09" ry="18"/>
<text text-anchor="middle" x="1181.48" y="-158.3" font-family="Times,serif" font-size="14.00">Rename</text>
</g>
<!-- 18&#45;&gt;10 -->
<g id="edge11" class="edge">
<title>18&#45;&gt;10</title>
<path fill="none" stroke="black" d="M1159.42,-146.83C1142.21,-135.78 1118.21,-120.36 1099.78,-108.53"/>
<polygon fill="black" stroke="black" points="1101.54,-105.5 1091.24,-103.05 1097.76,-111.39 1101.54,-105.5"/>
</g>
<!-- 19 -->
<g id="node19" class="node">
<title>19</title>
<ellipse fill="none" stroke="black" cx="1072.48" cy="-378" rx="94.48" ry="18"/>
<text text-anchor="middle" x="1072.48" y="-374.3" font-family="Times,serif" font-size="14.00">input cols=[timestamp]</text>
</g>
<!-- 19&#45;&gt;11 -->
<g id="edge15" class="edge">
<title>19&#45;&gt;11</title>
<path fill="none" stroke="black" d="M1072.48,-359.7C1072.48,-351.98 1072.48,-342.71 1072.48,-334.11"/>
<polygon fill="black" stroke="black" points="1075.98,-334.1 1072.48,-324.1 1068.98,-334.1 1075.98,-334.1"/>
</g>
<!-- 14&#45;&gt;18 -->
<g id="edge22" class="edge">
<title>14&#45;&gt;18</title>
<path fill="none" stroke="black" d="M1189.01,-215.7C1187.91,-207.98 1186.58,-198.71 1185.35,-190.11"/>
<polygon fill="black" stroke="black" points="1188.8,-189.51 1183.92,-180.1 1181.87,-190.5 1188.8,-189.51"/>
</g>
<!-- 16 -->
<g id="node21" class="node">
<title>16</title>
<ellipse fill="none" stroke="black" cx="387.48" cy="-306" rx="90.98" ry="18"/>
<text text-anchor="middle" x="387.48" y="-302.3" font-family="Times,serif" font-size="14.00">input cols=[b_user_id]</text>
</g>
<!-- 16&#45;&gt;15 -->
<g id="edge20" class="edge">
<title>16&#45;&gt;15</title>
<path fill="none" stroke="black" d="M368.11,-288.05C357.84,-279.07 345.07,-267.9 333.91,-258.12"/>
<polygon fill="black" stroke="black" points="335.95,-255.26 326.12,-251.31 331.34,-260.53 335.95,-255.26"/>
</g>
</g>
</svg>
