<?xml version="1.0" encoding="UTF-8" standalone="no"?>
<!DOCTYPE svg PUBLIC "-//W3C//DTD SVG 1.1//EN"
 "http://www.w3.org/Graphics/SVG/1.1/DTD/svg11.dtd">
<!-- Generated by graphviz version 2.40.1 (20161225.0304)
 -->
<!-- Title: %3 Pages: 1 -->
<svg width="418pt" height="260pt"
 viewBox="0.00 0.00 417.53 260.00" xmlns="http://www.w3.org/2000/svg" xmlns:xlink="http://www.w3.org/1999/xlink">
<g id="graph0" class="graph" transform="scale(1 1) rotate(0) translate(4 256)">
<title>%3</title>
<polygon fill="#ffffff" stroke="transparent" points="-4,4 -4,-256 413.5323,-256 413.5323,4 -4,4"/>
<!-- 0 -->
<g id="node1" class="node">
<title>0</title>
<ellipse fill="none" stroke="#000000" cx="354.2872" cy="-162" rx="48.1917" ry="18"/>
<text text-anchor="middle" x="354.2872" y="-158.3" font-family="Times,serif" font-size="14.00" fill="#000000">Categorify</text>
</g>
<!-- 1 -->
<g id="node3" class="node">
<title>1</title>
<ellipse fill="none" stroke="#000000" cx="249.2872" cy="-90" rx="27" ry="18"/>
<text text-anchor="middle" x="249.2872" y="-86.3" font-family="Times,serif" font-size="14.00" fill="#000000">+</text>
</g>
<!-- 0&#45;&gt;1 -->
<g id="edge2" class="edge">
<title>0&#45;&gt;1</title>
<path fill="none" stroke="#000000" d="M331.2445,-146.1993C315.2054,-135.2011 293.743,-120.484 276.8048,-108.8692"/>
<polygon fill="#000000" stroke="#000000" points="278.639,-105.8831 268.4123,-103.1144 274.6802,-111.6562 278.639,-105.8831"/>
</g>
<!-- 3 -->
<g id="node2" class="node">
<title>3</title>
<ellipse fill="none" stroke="#000000" cx="354.2872" cy="-234" rx="55.4913" ry="18"/>
<text text-anchor="middle" x="354.2872" y="-230.3" font-family="Times,serif" font-size="14.00" fill="#000000">JoinExternal</text>
</g>
<!-- 3&#45;&gt;0 -->
<g id="edge1" class="edge">
<title>3&#45;&gt;0</title>
<path fill="none" stroke="#000000" d="M354.2872,-215.8314C354.2872,-208.131 354.2872,-198.9743 354.2872,-190.4166"/>
<polygon fill="#000000" stroke="#000000" points="357.7873,-190.4132 354.2872,-180.4133 350.7873,-190.4133 357.7873,-190.4132"/>
</g>
<!-- 4 -->
<g id="node5" class="node">
<title>4</title>
<ellipse fill="none" stroke="#000000" cx="249.2872" cy="-18" rx="152.9733" ry="18"/>
<text text-anchor="middle" x="249.2872" y="-14.3" font-family="Times,serif" font-size="14.00" fill="#000000">output cols=[userId, movieId, genres...]</text>
</g>
<!-- 1&#45;&gt;4 -->
<g id="edge4" class="edge">
<title>1&#45;&gt;4</title>
<path fill="none" stroke="#000000" d="M249.2872,-71.8314C249.2872,-64.131 249.2872,-54.9743 249.2872,-46.4166"/>
<polygon fill="#000000" stroke="#000000" points="252.7873,-46.4132 249.2872,-36.4133 245.7873,-46.4133 252.7873,-46.4132"/>
</g>
<!-- 2 -->
<g id="node4" class="node">
<title>2</title>
<ellipse fill="none" stroke="#000000" cx="144.2872" cy="-162" rx="144.0747" ry="18"/>
<text text-anchor="middle" x="144.2872" y="-158.3" font-family="Times,serif" font-size="14.00" fill="#000000">(lambda col: (col &gt; 3).astype(&quot;int8&quot;))</text>
</g>
<!-- 2&#45;&gt;1 -->
<g id="edge3" class="edge">
<title>2&#45;&gt;1</title>
<path fill="none" stroke="#000000" d="M170.2423,-144.2022C185.9219,-133.4505 205.8883,-119.7593 221.8309,-108.8272"/>
<polygon fill="#000000" stroke="#000000" points="223.9532,-111.6158 230.2211,-103.0739 219.9945,-105.8426 223.9532,-111.6158"/>
</g>
</g>
</svg>
