<?xml version="1.0" encoding="UTF-8" standalone="no"?>
<!DOCTYPE svg PUBLIC "-//W3C//DTD SVG 1.1//EN"
 "http://www.w3.org/Graphics/SVG/1.1/DTD/svg11.dtd">
<!-- Generated by graphviz version 2.43.0 (0)
 -->
<!-- Title: %3 Pages: 1 -->
<svg width="547pt" height="332pt"
 viewBox="0.00 0.00 546.78 332.00" xmlns="http://www.w3.org/2000/svg" xmlns:xlink="http://www.w3.org/1999/xlink">
<g id="graph0" class="graph" transform="scale(1 1) rotate(0) translate(4 328)">
<title>%3</title>
<polygon fill="white" stroke="transparent" points="-4,4 -4,-328 542.78,-328 542.78,4 -4,4"/>
<!-- 0 -->
<g id="node1" class="node">
<title>0</title>
<ellipse fill="none" stroke="black" cx="358.09" cy="-162" rx="180.87" ry="18"/>
<text text-anchor="middle" x="358.09" y="-158.3" font-family="Times,serif" font-size="14.00">(lambda col: (col &gt; 3).astype(&quot;int8&quot;))</text>
</g>
<!-- 2 -->
<g id="node5" class="node">
<title>2</title>
<ellipse fill="none" stroke="black" cx="229.09" cy="-90" rx="27" ry="18"/>
<text text-anchor="middle" x="229.09" y="-86.3" font-family="Times,serif" font-size="14.00">+</text>
</g>
<!-- 0&#45;&gt;2 -->
<g id="edge4" class="edge">
<title>0&#45;&gt;2</title>
<path fill="none" stroke="black" d="M327.19,-144.23C306.25,-132.87 278.75,-117.95 258.2,-106.79"/>
<polygon fill="black" stroke="black" points="259.75,-103.65 249.29,-101.96 256.41,-109.81 259.75,-103.65"/>
</g>
<!-- 0_selector -->
<g id="node2" class="node">
<title>0_selector</title>
<ellipse fill="none" stroke="black" cx="358.09" cy="-234" rx="50.89" ry="18"/>
<text text-anchor="middle" x="358.09" y="-230.3" font-family="Times,serif" font-size="14.00">[&#39;rating&#39;]</text>
</g>
<!-- 0_selector&#45;&gt;0 -->
<g id="edge1" class="edge">
<title>0_selector&#45;&gt;0</title>
<path fill="none" stroke="black" d="M358.09,-215.7C358.09,-207.98 358.09,-198.71 358.09,-190.11"/>
<polygon fill="black" stroke="black" points="361.59,-190.1 358.09,-180.1 354.59,-190.1 361.59,-190.1"/>
</g>
<!-- 1 -->
<g id="node3" class="node">
<title>1</title>
<ellipse fill="none" stroke="black" cx="100.09" cy="-162" rx="59.59" ry="18"/>
<text text-anchor="middle" x="100.09" y="-158.3" font-family="Times,serif" font-size="14.00">Categorify</text>
</g>
<!-- 1&#45;&gt;2 -->
<g id="edge3" class="edge">
<title>1&#45;&gt;2</title>
<path fill="none" stroke="black" d="M127.76,-145.98C148.92,-134.51 178.02,-118.72 199.61,-107"/>
<polygon fill="black" stroke="black" points="201.53,-109.94 208.65,-102.09 198.19,-103.79 201.53,-109.94"/>
</g>
<!-- 3 -->
<g id="node4" class="node">
<title>3</title>
<ellipse fill="none" stroke="black" cx="100.09" cy="-234" rx="68.49" ry="18"/>
<text text-anchor="middle" x="100.09" y="-230.3" font-family="Times,serif" font-size="14.00">JoinExternal</text>
</g>
<!-- 3&#45;&gt;1 -->
<g id="edge2" class="edge">
<title>3&#45;&gt;1</title>
<path fill="none" stroke="black" d="M100.09,-215.7C100.09,-207.98 100.09,-198.71 100.09,-190.11"/>
<polygon fill="black" stroke="black" points="103.59,-190.1 100.09,-180.1 96.59,-190.1 103.59,-190.1"/>
</g>
<!-- 4 -->
<g id="node7" class="node">
<title>4</title>
<ellipse fill="none" stroke="black" cx="229.09" cy="-18" rx="62.29" ry="18"/>
<text text-anchor="middle" x="229.09" y="-14.3" font-family="Times,serif" font-size="14.00">output cols</text>
</g>
<!-- 2&#45;&gt;4 -->
<g id="edge6" class="edge">
<title>2&#45;&gt;4</title>
<path fill="none" stroke="black" d="M229.09,-71.7C229.09,-63.98 229.09,-54.71 229.09,-46.11"/>
<polygon fill="black" stroke="black" points="232.59,-46.1 229.09,-36.1 225.59,-46.1 232.59,-46.1"/>
</g>
<!-- 3_selector -->
<g id="node6" class="node">
<title>3_selector</title>
<ellipse fill="none" stroke="black" cx="100.09" cy="-306" rx="100.18" ry="18"/>
<text text-anchor="middle" x="100.09" y="-302.3" font-family="Times,serif" font-size="14.00">[&#39;userId&#39;, &#39;movieId&#39;]</text>
</g>
<!-- 3_selector&#45;&gt;3 -->
<g id="edge5" class="edge">
<title>3_selector&#45;&gt;3</title>
<path fill="none" stroke="black" d="M100.09,-287.7C100.09,-279.98 100.09,-270.71 100.09,-262.11"/>
<polygon fill="black" stroke="black" points="103.59,-262.1 100.09,-252.1 96.59,-262.1 103.59,-262.1"/>
</g>
</g>
</svg>
