<?xml version="1.0" encoding="UTF-8" standalone="no"?>
<!DOCTYPE svg PUBLIC "-//W3C//DTD SVG 1.1//EN"
 "http://www.w3.org/Graphics/SVG/1.1/DTD/svg11.dtd">
<!-- Generated by graphviz version 2.43.0 (0)
 -->
<!-- Title: %3 Pages: 1 -->
<svg width="867pt" height="332pt"
 viewBox="0.00 0.00 866.52 332.00" xmlns="http://www.w3.org/2000/svg" xmlns:xlink="http://www.w3.org/1999/xlink">
<g id="graph0" class="graph" transform="scale(1 1) rotate(0) translate(4 328)">
<title>%3</title>
<polygon fill="white" stroke="transparent" points="-4,4 -4,-328 862.52,-328 862.52,4 -4,4"/>
<!-- 0 -->
<g id="node1" class="node">
<title>0</title>
<ellipse fill="none" stroke="black" cx="417.09" cy="-90" rx="27" ry="18"/>
<text text-anchor="middle" x="417.09" y="-86.3" font-family="Times,serif" font-size="14.00">+</text>
</g>
<!-- 5 -->
<g id="node10" class="node">
<title>5</title>
<ellipse fill="none" stroke="black" cx="417.09" cy="-18" rx="62.29" ry="18"/>
<text text-anchor="middle" x="417.09" y="-14.3" font-family="Times,serif" font-size="14.00">output cols</text>
</g>
<!-- 0&#45;&gt;5 -->
<g id="edge9" class="edge">
<title>0&#45;&gt;5</title>
<path fill="none" stroke="black" d="M417.09,-71.7C417.09,-63.98 417.09,-54.71 417.09,-46.11"/>
<polygon fill="black" stroke="black" points="420.59,-46.1 417.09,-36.1 413.59,-46.1 420.59,-46.1"/>
</g>
<!-- 4 -->
<g id="node2" class="node">
<title>4</title>
<ellipse fill="none" stroke="black" cx="244.09" cy="-162" rx="59.59" ry="18"/>
<text text-anchor="middle" x="244.09" y="-158.3" font-family="Times,serif" font-size="14.00">Categorify</text>
</g>
<!-- 4&#45;&gt;0 -->
<g id="edge1" class="edge">
<title>4&#45;&gt;0</title>
<path fill="none" stroke="black" d="M278.27,-147.17C309.37,-134.59 354.92,-116.16 385.26,-103.88"/>
<polygon fill="black" stroke="black" points="386.59,-107.12 394.54,-100.12 383.96,-100.63 386.59,-107.12"/>
</g>
<!-- 3 -->
<g id="node3" class="node">
<title>3</title>
<ellipse fill="none" stroke="black" cx="590.09" cy="-162" rx="268.35" ry="18"/>
<text text-anchor="middle" x="590.09" y="-158.3" font-family="Times,serif" font-size="14.00">nvt.ops.LambdaOp(lambda col: (col &gt; 3).astype(&quot;int8&quot;))</text>
</g>
<!-- 3&#45;&gt;0 -->
<g id="edge2" class="edge">
<title>3&#45;&gt;0</title>
<path fill="none" stroke="black" d="M548.21,-144.05C517.62,-131.68 476.77,-115.15 448.85,-103.85"/>
<polygon fill="black" stroke="black" points="450.13,-100.59 439.55,-100.09 447.5,-107.08 450.13,-100.59"/>
</g>
<!-- 1 -->
<g id="node4" class="node">
<title>1</title>
<ellipse fill="none" stroke="black" cx="550.09" cy="-234" rx="66.89" ry="18"/>
<text text-anchor="middle" x="550.09" y="-230.3" font-family="Times,serif" font-size="14.00">SelectionOp</text>
</g>
<!-- 1&#45;&gt;3 -->
<g id="edge5" class="edge">
<title>1&#45;&gt;3</title>
<path fill="none" stroke="black" d="M559.77,-216.05C564.37,-208.01 569.97,-198.2 575.1,-189.23"/>
<polygon fill="black" stroke="black" points="578.3,-190.69 580.22,-180.28 572.22,-187.22 578.3,-190.69"/>
</g>
<!-- 1_selector -->
<g id="node5" class="node">
<title>1_selector</title>
<ellipse fill="none" stroke="black" cx="550.09" cy="-306" rx="50.89" ry="18"/>
<text text-anchor="middle" x="550.09" y="-302.3" font-family="Times,serif" font-size="14.00">[&#39;rating&#39;]</text>
</g>
<!-- 1_selector&#45;&gt;1 -->
<g id="edge3" class="edge">
<title>1_selector&#45;&gt;1</title>
<path fill="none" stroke="black" d="M550.09,-287.7C550.09,-279.98 550.09,-270.71 550.09,-262.11"/>
<polygon fill="black" stroke="black" points="553.59,-262.1 550.09,-252.1 546.59,-262.1 553.59,-262.1"/>
</g>
<!-- 2 -->
<g id="node6" class="node">
<title>2</title>
<ellipse fill="none" stroke="black" cx="100.09" cy="-234" rx="66.89" ry="18"/>
<text text-anchor="middle" x="100.09" y="-230.3" font-family="Times,serif" font-size="14.00">SelectionOp</text>
</g>
<!-- 2&#45;&gt;4 -->
<g id="edge7" class="edge">
<title>2&#45;&gt;4</title>
<path fill="none" stroke="black" d="M130.98,-217.98C152.48,-207.53 181.34,-193.51 204.52,-182.24"/>
<polygon fill="black" stroke="black" points="206.28,-185.27 213.74,-177.75 203.22,-178.98 206.28,-185.27"/>
</g>
<!-- 2_selector -->
<g id="node7" class="node">
<title>2_selector</title>
<ellipse fill="none" stroke="black" cx="100.09" cy="-306" rx="100.18" ry="18"/>
<text text-anchor="middle" x="100.09" y="-302.3" font-family="Times,serif" font-size="14.00">[&#39;userId&#39;, &#39;movieId&#39;]</text>
</g>
<!-- 2_selector&#45;&gt;2 -->
<g id="edge4" class="edge">
<title>2_selector&#45;&gt;2</title>
<path fill="none" stroke="black" d="M100.09,-287.7C100.09,-279.98 100.09,-270.71 100.09,-262.11"/>
<polygon fill="black" stroke="black" points="103.59,-262.1 100.09,-252.1 96.59,-262.1 103.59,-262.1"/>
</g>
<!-- 3_selector -->
<g id="node8" class="node">
<title>3_selector</title>
<ellipse fill="none" stroke="black" cx="686.09" cy="-234" rx="50.89" ry="18"/>
<text text-anchor="middle" x="686.09" y="-230.3" font-family="Times,serif" font-size="14.00">[&#39;rating&#39;]</text>
</g>
<!-- 3_selector&#45;&gt;3 -->
<g id="edge6" class="edge">
<title>3_selector&#45;&gt;3</title>
<path fill="none" stroke="black" d="M664.79,-217.46C652.16,-208.26 635.92,-196.42 621.81,-186.13"/>
<polygon fill="black" stroke="black" points="623.5,-183.03 613.35,-179.96 619.37,-188.68 623.5,-183.03"/>
</g>
<!-- 4_selector -->
<g id="node9" class="node">
<title>4_selector</title>
<ellipse fill="none" stroke="black" cx="285.09" cy="-234" rx="100.18" ry="18"/>
<text text-anchor="middle" x="285.09" y="-230.3" font-family="Times,serif" font-size="14.00">[&#39;userId&#39;, &#39;movieId&#39;]</text>
</g>
<!-- 4_selector&#45;&gt;4 -->
<g id="edge8" class="edge">
<title>4_selector&#45;&gt;4</title>
<path fill="none" stroke="black" d="M275.17,-216.05C270.33,-207.8 264.42,-197.7 259.05,-188.54"/>
<polygon fill="black" stroke="black" points="262,-186.65 253.92,-179.79 255.96,-190.19 262,-186.65"/>
</g>
</g>
</svg>
