<?xml version="1.0" encoding="UTF-8" standalone="no"?>
<!DOCTYPE svg PUBLIC "-//W3C//DTD SVG 1.1//EN"
 "http://www.w3.org/Graphics/SVG/1.1/DTD/svg11.dtd">
<!-- Generated by graphviz version 2.43.0 (0)
 -->
<!-- Title: %3 Pages: 1 -->
<svg width="208pt" height="260pt"
 viewBox="0.00 0.00 208.18 260.00" xmlns="http://www.w3.org/2000/svg" xmlns:xlink="http://www.w3.org/1999/xlink">
<g id="graph0" class="graph" transform="scale(1 1) rotate(0) translate(4 256)">
<title>%3</title>
<polygon fill="white" stroke="transparent" points="-4,4 -4,-256 204.18,-256 204.18,4 -4,4"/>
<!-- 0 -->
<g id="node1" class="node">
<title>0</title>
<ellipse fill="none" stroke="black" cx="100.09" cy="-162" rx="66.89" ry="18"/>
<text text-anchor="middle" x="100.09" y="-158.3" font-family="Times,serif" font-size="14.00">SelectionOp</text>
</g>
<!-- 1 -->
<g id="node3" class="node">
<title>1</title>
<ellipse fill="none" stroke="black" cx="100.09" cy="-90" rx="68.49" ry="18"/>
<text text-anchor="middle" x="100.09" y="-86.3" font-family="Times,serif" font-size="14.00">JoinExternal</text>
</g>
<!-- 0&#45;&gt;1 -->
<g id="edge2" class="edge">
<title>0&#45;&gt;1</title>
<path fill="none" stroke="black" d="M100.09,-143.7C100.09,-135.98 100.09,-126.71 100.09,-118.11"/>
<polygon fill="black" stroke="black" points="103.59,-118.1 100.09,-108.1 96.59,-118.1 103.59,-118.1"/>
</g>
<!-- 0_selector -->
<g id="node2" class="node">
<title>0_selector</title>
<ellipse fill="none" stroke="black" cx="100.09" cy="-234" rx="100.18" ry="18"/>
<text text-anchor="middle" x="100.09" y="-230.3" font-family="Times,serif" font-size="14.00">[&#39;userId&#39;, &#39;movieId&#39;]</text>
</g>
<!-- 0_selector&#45;&gt;0 -->
<g id="edge1" class="edge">
<title>0_selector&#45;&gt;0</title>
<path fill="none" stroke="black" d="M100.09,-215.7C100.09,-207.98 100.09,-198.71 100.09,-190.11"/>
<polygon fill="black" stroke="black" points="103.59,-190.1 100.09,-180.1 96.59,-190.1 103.59,-190.1"/>
</g>
<!-- 2 -->
<g id="node4" class="node">
<title>2</title>
<ellipse fill="none" stroke="black" cx="100.09" cy="-18" rx="62.29" ry="18"/>
<text text-anchor="middle" x="100.09" y="-14.3" font-family="Times,serif" font-size="14.00">output cols</text>
</g>
<!-- 1&#45;&gt;2 -->
<g id="edge3" class="edge">
<title>1&#45;&gt;2</title>
<path fill="none" stroke="black" d="M100.09,-71.7C100.09,-63.98 100.09,-54.71 100.09,-46.11"/>
<polygon fill="black" stroke="black" points="103.59,-46.1 100.09,-36.1 96.59,-46.1 103.59,-46.1"/>
</g>
</g>
</svg>
