<?xml version="1.0" encoding="UTF-8" standalone="no"?>
<!DOCTYPE svg PUBLIC "-//W3C//DTD SVG 1.1//EN"
 "http://www.w3.org/Graphics/SVG/1.1/DTD/svg11.dtd">
<!-- Generated by graphviz version 2.43.0 (0)
 -->
<!-- Title: %3 Pages: 1 -->
<svg width="393pt" height="260pt"
 viewBox="0.00 0.00 393.18 260.00" xmlns="http://www.w3.org/2000/svg" xmlns:xlink="http://www.w3.org/1999/xlink">
<g id="graph0" class="graph" transform="scale(1 1) rotate(0) translate(4 256)">
<title>%3</title>
<polygon fill="white" stroke="transparent" points="-4,4 -4,-256 389.18,-256 389.18,4 -4,4"/>
<!-- 0 -->
<g id="node1" class="node">
<title>0</title>
<ellipse fill="none" stroke="black" cx="192.09" cy="-90" rx="68.49" ry="18"/>
<text text-anchor="middle" x="192.09" y="-86.3" font-family="Times,serif" font-size="14.00">JoinExternal</text>
</g>
<!-- 2 -->
<g id="node5" class="node">
<title>2</title>
<ellipse fill="none" stroke="black" cx="192.09" cy="-18" rx="149.47" ry="18"/>
<text text-anchor="middle" x="192.09" y="-14.3" font-family="Times,serif" font-size="14.00">output cols=[userId, movieId]</text>
</g>
<!-- 0&#45;&gt;2 -->
<g id="edge4" class="edge">
<title>0&#45;&gt;2</title>
<path fill="none" stroke="black" d="M192.09,-71.7C192.09,-63.98 192.09,-54.71 192.09,-46.11"/>
<polygon fill="black" stroke="black" points="195.59,-46.1 192.09,-36.1 188.59,-46.1 195.59,-46.1"/>
</g>
<!-- 1 -->
<g id="node2" class="node">
<title>1</title>
<ellipse fill="none" stroke="black" cx="100.09" cy="-162" rx="66.89" ry="18"/>
<text text-anchor="middle" x="100.09" y="-158.3" font-family="Times,serif" font-size="14.00">SelectionOp</text>
</g>
<!-- 1&#45;&gt;0 -->
<g id="edge1" class="edge">
<title>1&#45;&gt;0</title>
<path fill="none" stroke="black" d="M121.43,-144.76C133.74,-135.4 149.39,-123.49 162.83,-113.26"/>
<polygon fill="black" stroke="black" points="165.03,-115.99 170.87,-107.15 160.79,-110.42 165.03,-115.99"/>
</g>
<!-- 0_selector -->
<g id="node3" class="node">
<title>0_selector</title>
<ellipse fill="none" stroke="black" cx="285.09" cy="-162" rx="100.18" ry="18"/>
<text text-anchor="middle" x="285.09" y="-158.3" font-family="Times,serif" font-size="14.00">[&#39;userId&#39;, &#39;movieId&#39;]</text>
</g>
<!-- 0_selector&#45;&gt;0 -->
<g id="edge2" class="edge">
<title>0_selector&#45;&gt;0</title>
<path fill="none" stroke="black" d="M263.05,-144.41C250.69,-135.1 235.09,-123.37 221.68,-113.27"/>
<polygon fill="black" stroke="black" points="223.75,-110.45 213.65,-107.23 219.54,-116.04 223.75,-110.45"/>
</g>
<!-- 1_selector -->
<g id="node4" class="node">
<title>1_selector</title>
<ellipse fill="none" stroke="black" cx="100.09" cy="-234" rx="100.18" ry="18"/>
<text text-anchor="middle" x="100.09" y="-230.3" font-family="Times,serif" font-size="14.00">[&#39;userId&#39;, &#39;movieId&#39;]</text>
</g>
<!-- 1_selector&#45;&gt;1 -->
<g id="edge3" class="edge">
<title>1_selector&#45;&gt;1</title>
<path fill="none" stroke="black" d="M100.09,-215.7C100.09,-207.98 100.09,-198.71 100.09,-190.11"/>
<polygon fill="black" stroke="black" points="103.59,-190.1 100.09,-180.1 96.59,-190.1 103.59,-190.1"/>
</g>
</g>
</svg>
