<?xml version="1.0" encoding="UTF-8" standalone="no"?>
<!DOCTYPE svg PUBLIC "-//W3C//DTD SVG 1.1//EN"
 "http://www.w3.org/Graphics/SVG/1.1/DTD/svg11.dtd">
<!-- Generated by graphviz version 2.43.0 (0)
 -->
<!-- Title: %3 Pages: 1 -->
<svg width="775pt" height="260pt"
 viewBox="0.00 0.00 774.93 260.00" xmlns="http://www.w3.org/2000/svg" xmlns:xlink="http://www.w3.org/1999/xlink">
<g id="graph0" class="graph" transform="scale(1 1) rotate(0) translate(4 256)">
<title>%3</title>
<polygon fill="white" stroke="transparent" points="-4,4 -4,-256 770.93,-256 770.93,4 -4,4"/>
<!-- 0 -->
<g id="node1" class="node">
<title>0</title>
<ellipse fill="none" stroke="black" cx="383.47" cy="-162" rx="62.29" ry="18"/>
<text text-anchor="middle" x="383.47" y="-158.3" font-family="Times,serif" font-size="14.00">FillMissing</text>
</g>
<!-- 2 -->
<g id="node3" class="node">
<title>2</title>
<ellipse fill="none" stroke="black" cx="383.47" cy="-90" rx="58.49" ry="18"/>
<text text-anchor="middle" x="383.47" y="-86.3" font-family="Times,serif" font-size="14.00">Normalize</text>
</g>
<!-- 0&#45;&gt;2 -->
<g id="edge2" class="edge">
<title>0&#45;&gt;2</title>
<path fill="none" stroke="black" d="M383.47,-143.7C383.47,-135.98 383.47,-126.71 383.47,-118.11"/>
<polygon fill="black" stroke="black" points="386.97,-118.1 383.47,-108.1 379.97,-118.1 386.97,-118.1"/>
</g>
<!-- 1 -->
<g id="node2" class="node">
<title>1</title>
<ellipse fill="none" stroke="black" cx="383.47" cy="-234" rx="376.93" ry="18"/>
<text text-anchor="middle" x="383.47" y="-230.3" font-family="Times,serif" font-size="14.00">input cols=[CompetitionDistance, Max_TemperatureC, Mean_TemperatureC...]</text>
</g>
<!-- 1&#45;&gt;0 -->
<g id="edge1" class="edge">
<title>1&#45;&gt;0</title>
<path fill="none" stroke="black" d="M383.47,-215.7C383.47,-207.98 383.47,-198.71 383.47,-190.11"/>
<polygon fill="black" stroke="black" points="386.97,-190.1 383.47,-180.1 379.97,-190.1 386.97,-190.1"/>
</g>
<!-- 3 -->
<g id="node4" class="node">
<title>3</title>
<ellipse fill="none" stroke="black" cx="383.47" cy="-18" rx="383.43" ry="18"/>
<text text-anchor="middle" x="383.47" y="-14.3" font-family="Times,serif" font-size="14.00">output cols=[CompetitionDistance, Max_TemperatureC, Mean_TemperatureC...]</text>
</g>
<!-- 2&#45;&gt;3 -->
<g id="edge3" class="edge">
<title>2&#45;&gt;3</title>
<path fill="none" stroke="black" d="M383.47,-71.7C383.47,-63.98 383.47,-54.71 383.47,-46.11"/>
<polygon fill="black" stroke="black" points="386.97,-46.1 383.47,-36.1 379.97,-46.1 386.97,-46.1"/>
</g>
</g>
</svg>
