<?xml version="1.0" encoding="UTF-8" standalone="no"?>
<!DOCTYPE svg PUBLIC "-//W3C//DTD SVG 1.1//EN"
 "http://www.w3.org/Graphics/SVG/1.1/DTD/svg11.dtd">
<!-- Generated by graphviz version 2.43.0 (0)
 -->
<!-- Title: %3 Pages: 1 -->
<svg width="817pt" height="404pt"
 viewBox="0.00 0.00 816.52 404.00" xmlns="http://www.w3.org/2000/svg" xmlns:xlink="http://www.w3.org/1999/xlink">
<g id="graph0" class="graph" transform="scale(1 1) rotate(0) translate(4 400)">
<title>%3</title>
<polygon fill="white" stroke="transparent" points="-4,4 -4,-400 812.52,-400 812.52,4 -4,4"/>
<!-- 0 -->
<g id="node1" class="node">
<title>0</title>
<ellipse fill="none" stroke="black" cx="708.43" cy="-306" rx="66.89" ry="18"/>
<text text-anchor="middle" x="708.43" y="-302.3" font-family="Times,serif" font-size="14.00">SelectionOp</text>
</g>
<!-- 1 -->
<g id="node3" class="node">
<title>1</title>
<ellipse fill="none" stroke="black" cx="614.43" cy="-234" rx="68.49" ry="18"/>
<text text-anchor="middle" x="614.43" y="-230.3" font-family="Times,serif" font-size="14.00">JoinExternal</text>
</g>
<!-- 0&#45;&gt;1 -->
<g id="edge2" class="edge">
<title>0&#45;&gt;1</title>
<path fill="none" stroke="black" d="M686.62,-288.76C674.05,-279.4 658.06,-267.49 644.32,-257.26"/>
<polygon fill="black" stroke="black" points="646.22,-254.31 636.11,-251.15 642.04,-259.93 646.22,-254.31"/>
</g>
<!-- 0_selector -->
<g id="node2" class="node">
<title>0_selector</title>
<ellipse fill="none" stroke="black" cx="708.43" cy="-378" rx="100.18" ry="18"/>
<text text-anchor="middle" x="708.43" y="-374.3" font-family="Times,serif" font-size="14.00">[&#39;userId&#39;, &#39;movieId&#39;]</text>
</g>
<!-- 0_selector&#45;&gt;0 -->
<g id="edge1" class="edge">
<title>0_selector&#45;&gt;0</title>
<path fill="none" stroke="black" d="M708.43,-359.7C708.43,-351.98 708.43,-342.71 708.43,-334.11"/>
<polygon fill="black" stroke="black" points="711.93,-334.1 708.43,-324.1 704.93,-334.1 711.93,-334.1"/>
</g>
<!-- 2 -->
<g id="node5" class="node">
<title>2</title>
<ellipse fill="none" stroke="black" cx="614.43" cy="-162" rx="59.59" ry="18"/>
<text text-anchor="middle" x="614.43" y="-158.3" font-family="Times,serif" font-size="14.00">Categorify</text>
</g>
<!-- 1&#45;&gt;2 -->
<g id="edge4" class="edge">
<title>1&#45;&gt;2</title>
<path fill="none" stroke="black" d="M614.43,-215.7C614.43,-207.98 614.43,-198.71 614.43,-190.11"/>
<polygon fill="black" stroke="black" points="617.93,-190.1 614.43,-180.1 610.93,-190.1 617.93,-190.1"/>
</g>
<!-- 1_selector -->
<g id="node4" class="node">
<title>1_selector</title>
<ellipse fill="none" stroke="black" cx="523.43" cy="-306" rx="100.18" ry="18"/>
<text text-anchor="middle" x="523.43" y="-302.3" font-family="Times,serif" font-size="14.00">[&#39;userId&#39;, &#39;movieId&#39;]</text>
</g>
<!-- 1_selector&#45;&gt;1 -->
<g id="edge3" class="edge">
<title>1_selector&#45;&gt;1</title>
<path fill="none" stroke="black" d="M544.99,-288.41C556.98,-279.19 572.06,-267.59 585.11,-257.55"/>
<polygon fill="black" stroke="black" points="587.54,-260.1 593.33,-251.23 583.27,-254.55 587.54,-260.1"/>
</g>
<!-- 3 -->
<g id="node6" class="node">
<title>3</title>
<ellipse fill="none" stroke="black" cx="441.43" cy="-90" rx="27" ry="18"/>
<text text-anchor="middle" x="441.43" y="-86.3" font-family="Times,serif" font-size="14.00">+</text>
</g>
<!-- 2&#45;&gt;3 -->
<g id="edge5" class="edge">
<title>2&#45;&gt;3</title>
<path fill="none" stroke="black" d="M580.25,-147.17C549.15,-134.59 503.6,-116.16 473.25,-103.88"/>
<polygon fill="black" stroke="black" points="474.56,-100.63 463.97,-100.12 471.93,-107.12 474.56,-100.63"/>
</g>
<!-- 6 -->
<g id="node11" class="node">
<title>6</title>
<ellipse fill="none" stroke="black" cx="441.43" cy="-18" rx="62.29" ry="18"/>
<text text-anchor="middle" x="441.43" y="-14.3" font-family="Times,serif" font-size="14.00">output cols</text>
</g>
<!-- 3&#45;&gt;6 -->
<g id="edge10" class="edge">
<title>3&#45;&gt;6</title>
<path fill="none" stroke="black" d="M441.43,-71.7C441.43,-63.98 441.43,-54.71 441.43,-46.11"/>
<polygon fill="black" stroke="black" points="444.93,-46.1 441.43,-36.1 437.93,-46.1 444.93,-46.1"/>
</g>
<!-- 5 -->
<g id="node7" class="node">
<title>5</title>
<ellipse fill="none" stroke="black" cx="268.43" cy="-162" rx="268.35" ry="18"/>
<text text-anchor="middle" x="268.43" y="-158.3" font-family="Times,serif" font-size="14.00">nvt.ops.LambdaOp(lambda col: (col &gt; 3).astype(&quot;int8&quot;))</text>
</g>
<!-- 5&#45;&gt;3 -->
<g id="edge6" class="edge">
<title>5&#45;&gt;3</title>
<path fill="none" stroke="black" d="M310.3,-144.05C340.9,-131.68 381.74,-115.15 409.67,-103.85"/>
<polygon fill="black" stroke="black" points="411.01,-107.08 418.97,-100.09 408.39,-100.59 411.01,-107.08"/>
</g>
<!-- 4 -->
<g id="node8" class="node">
<title>4</title>
<ellipse fill="none" stroke="black" cx="264.43" cy="-234" rx="66.89" ry="18"/>
<text text-anchor="middle" x="264.43" y="-230.3" font-family="Times,serif" font-size="14.00">SelectionOp</text>
</g>
<!-- 4&#45;&gt;5 -->
<g id="edge8" class="edge">
<title>4&#45;&gt;5</title>
<path fill="none" stroke="black" d="M265.41,-215.7C265.86,-207.98 266.39,-198.71 266.88,-190.11"/>
<polygon fill="black" stroke="black" points="270.37,-190.29 267.45,-180.1 263.38,-189.89 270.37,-190.29"/>
</g>
<!-- 4_selector -->
<g id="node9" class="node">
<title>4_selector</title>
<ellipse fill="none" stroke="black" cx="264.43" cy="-306" rx="50.89" ry="18"/>
<text text-anchor="middle" x="264.43" y="-302.3" font-family="Times,serif" font-size="14.00">[&#39;rating&#39;]</text>
</g>
<!-- 4_selector&#45;&gt;4 -->
<g id="edge7" class="edge">
<title>4_selector&#45;&gt;4</title>
<path fill="none" stroke="black" d="M264.43,-287.7C264.43,-279.98 264.43,-270.71 264.43,-262.11"/>
<polygon fill="black" stroke="black" points="267.93,-262.1 264.43,-252.1 260.93,-262.1 267.93,-262.1"/>
</g>
<!-- 5_selector -->
<g id="node10" class="node">
<title>5_selector</title>
<ellipse fill="none" stroke="black" cx="400.43" cy="-234" rx="50.89" ry="18"/>
<text text-anchor="middle" x="400.43" y="-230.3" font-family="Times,serif" font-size="14.00">[&#39;rating&#39;]</text>
</g>
<!-- 5_selector&#45;&gt;5 -->
<g id="edge9" class="edge">
<title>5_selector&#45;&gt;5</title>
<path fill="none" stroke="black" d="M373.4,-218.67C355,-208.91 330.31,-195.82 309.5,-184.78"/>
<polygon fill="black" stroke="black" points="311.02,-181.62 300.54,-180.03 307.74,-187.81 311.02,-181.62"/>
</g>
</g>
</svg>
